%TF.GenerationSoftware,KiCad,Pcbnew,10.0.3*%
%TF.CreationDate,2026-07-15T13:13:48+05:30*%
%TF.ProjectId,loraa,6c6f7261-612e-46b6-9963-61645f706362,rev?*%
%TF.SameCoordinates,Original*%
%TF.FileFunction,Copper,L2,Bot*%
%TF.FilePolarity,Positive*%
%FSLAX46Y46*%
G04 Gerber Fmt 4.6, Leading zero omitted, Abs format (unit mm)*
G04 Created by KiCad (PCBNEW 10.0.3) date 2026-07-15 13:13:48*
%MOMM*%
%LPD*%
G01*
G04 APERTURE LIST*
%TA.AperFunction,ComponentPad*%
%ADD10R,1.700000X1.700000*%
%TD*%
%TA.AperFunction,ComponentPad*%
%ADD11O,1.000000X2.100000*%
%TD*%
%TA.AperFunction,ComponentPad*%
%ADD12O,1.000000X1.800000*%
%TD*%
%TA.AperFunction,ViaPad*%
%ADD13C,0.500000*%
%TD*%
%TA.AperFunction,Conductor*%
%ADD14C,0.200000*%
%TD*%
G04 APERTURE END LIST*
D10*
%TO.P,AE1,1,A_1*%
%TO.N,Net-(AE1-A)*%
X146500000Y-83500000D03*
%TD*%
D11*
%TO.P,J1,SH,SHIELD_SH*%
%TO.N,Net-(J1-SHIELD)*%
X114680000Y-86895000D03*
D12*
X114680000Y-91075000D03*
D11*
X123320000Y-86895000D03*
D12*
X123320000Y-91075000D03*
%TD*%
D13*
%TO.N,Net-(AE1-A)*%
X145516800Y-86989000D03*
%TO.N,Earth*%
X123157000Y-85364900D03*
X124500000Y-72500000D03*
X123000000Y-73500000D03*
X122297700Y-83500000D03*
%TO.N,/SX_VR_PA*%
X144418900Y-77593500D03*
X118369400Y-68250000D03*
X139218900Y-80510300D03*
%TO.N,+3.3V*%
X140130700Y-67924600D03*
X135963500Y-75792600D03*
X133441400Y-76785400D03*
X140541000Y-82814500D03*
%TO.N,/QSPI_SS*%
X128010900Y-75694300D03*
X134388000Y-83635300D03*
X129205600Y-66460000D03*
%TO.N,/QSPI_SD1*%
X128836200Y-74938900D03*
X129672300Y-69411800D03*
%TO.N,/QSPI_SD2*%
X129193500Y-69000000D03*
X129074800Y-73998400D03*
%TO.N,/QSPI_SDO*%
X131462600Y-70270000D03*
X130128100Y-76281200D03*
%TO.N,/QSPI_SCLK*%
X133718400Y-69000000D03*
X130606800Y-74644800D03*
%TO.N,/QSPI_SD3*%
X131337500Y-74605500D03*
X136574400Y-67730000D03*
%TO.N,+1V1*%
X117452000Y-74227200D03*
X129763600Y-87000000D03*
%TO.N,/SX_RFO*%
X139718700Y-80000000D03*
X145253800Y-77722300D03*
%TO.N,Net-(L2-SW_RFO)*%
X141573800Y-84759900D03*
X146187982Y-78055948D03*
%TO.N,/SX_DIO1*%
X140886800Y-81716200D03*
X139666500Y-83794900D03*
%TO.N,/SPI_CLK*%
X142339264Y-82450715D03*
X138230000Y-82525100D03*
%TO.N,/SPI_MOSI*%
X137518600Y-81844300D03*
X138159200Y-73477300D03*
X143356710Y-81856710D03*
X142562800Y-74348900D03*
%TO.N,/SPI_MISO*%
X136153200Y-82971980D03*
X144526818Y-82997426D03*
X144526818Y-82997426D03*
X143716426Y-76639236D03*
%TO.N,/SX_NSS*%
X145157800Y-81466500D03*
X136888800Y-81365600D03*
%TO.N,/SX_NRST*%
X138719200Y-79100000D03*
X141577900Y-82429400D03*
%TO.N,Net-(C3-Pad2)*%
X138100200Y-72789100D03*
X132684300Y-86054700D03*
%TO.N,Net-(U2-RFC)*%
X143579300Y-86298600D03*
X144202000Y-83595720D03*
%TD*%
%TO.N,Net-(AE1-A)*%
D14*
X145516800Y-86989000D02*
X145516800Y-85561900D01*
X146500000Y-83500000D02*
X146500000Y-84578700D01*
X145516800Y-85561900D02*
X146500000Y-84578700D01*
%TO.N,Earth*%
X123500000Y-73500000D02*
X124500000Y-72500000D01*
X123000000Y-73500000D02*
X123500000Y-73500000D01*
X123157000Y-85364900D02*
X122297700Y-84505600D01*
X122297700Y-84505600D02*
X122297700Y-83500000D01*
%TO.N,/SX_VR_PA*%
X120640400Y-65979000D02*
X118369400Y-68250000D01*
X141320100Y-77593500D02*
X141320100Y-68385000D01*
X141320100Y-77593500D02*
X144418900Y-77593500D01*
X138914100Y-65979000D02*
X120640400Y-65979000D01*
X141320100Y-77593500D02*
X139218900Y-79694700D01*
X139218900Y-79694700D02*
X139218900Y-80510300D01*
X141320100Y-68385000D02*
X138914100Y-65979000D01*
%TO.N,+3.3V*%
X138228000Y-80719400D02*
X138228000Y-77676200D01*
X135963500Y-74232900D02*
X138093900Y-72102500D01*
X138228000Y-77676200D02*
X138637900Y-77266300D01*
X134970700Y-76785400D02*
X133441400Y-76785400D01*
X138637900Y-72646500D02*
X138093900Y-72102500D01*
X138637900Y-77266300D02*
X138637900Y-72646500D01*
X140130700Y-67924600D02*
X138093900Y-69961400D01*
X140323100Y-82814500D02*
X138228000Y-80719400D01*
X138093900Y-69961400D02*
X138093900Y-72102500D01*
X135963500Y-75792600D02*
X135963500Y-74232900D01*
X135963500Y-75792600D02*
X134970700Y-76785400D01*
X140541000Y-82814500D02*
X140323100Y-82814500D01*
%TO.N,/QSPI_SS*%
X129205600Y-66460000D02*
X128010900Y-67654700D01*
X134388000Y-82071400D02*
X134388000Y-83635300D01*
X128010900Y-67654700D02*
X128010900Y-75694300D01*
X128010900Y-75694300D02*
X134388000Y-82071400D01*
%TO.N,/QSPI_SD1*%
X129672300Y-74102800D02*
X129672300Y-69411800D01*
X128836200Y-74938900D02*
X129672300Y-74102800D01*
%TO.N,/QSPI_SD2*%
X129193500Y-69000000D02*
X129193500Y-73879700D01*
X129193500Y-73879700D02*
X129074800Y-73998400D01*
%TO.N,/QSPI_SDO*%
X130128100Y-71604500D02*
X131462600Y-70270000D01*
X130128100Y-76281200D02*
X130128100Y-71604500D01*
%TO.N,/QSPI_SCLK*%
X133718400Y-71533200D02*
X130606800Y-74644800D01*
X133718400Y-69000000D02*
X133718400Y-71533200D01*
%TO.N,/QSPI_SD3*%
X136574400Y-67730000D02*
X136574400Y-69150800D01*
X136574400Y-69150800D02*
X131337500Y-74387700D01*
X131337500Y-74387700D02*
X131337500Y-74605500D01*
%TO.N,+1V1*%
X117452000Y-74688400D02*
X129763600Y-87000000D01*
X117452000Y-74227200D02*
X117452000Y-74688400D01*
%TO.N,Net-(J1-SHIELD)*%
X114680000Y-91075000D02*
X114680000Y-86895000D01*
X123320000Y-91075000D02*
X123320000Y-86895000D01*
%TO.N,/SX_RFO*%
X139718700Y-80000000D02*
X142976100Y-80000000D01*
X142976100Y-80000000D02*
X145253800Y-77722300D01*
%TO.N,Net-(L2-SW_RFO)*%
X141573800Y-84759900D02*
X141573800Y-84353500D01*
X146411900Y-79585400D02*
X146411900Y-78279866D01*
X146411900Y-78279866D02*
X146187982Y-78055948D01*
X141573800Y-84423500D02*
X146411900Y-79585400D01*
%TO.N,/SX_DIO1*%
X141060600Y-82995200D02*
X140260900Y-83794900D01*
X140886800Y-81716200D02*
X141060600Y-81890000D01*
X140260900Y-83794900D02*
X139666500Y-83794900D01*
X141060600Y-81890000D02*
X141060600Y-82995200D01*
%TO.N,/SPI_CLK*%
X139446500Y-84292200D02*
X138230000Y-83075700D01*
X138230000Y-83075700D02*
X138230000Y-82525100D01*
X140497780Y-84292200D02*
X139446500Y-84292200D01*
X142339264Y-82450715D02*
X140497780Y-84292200D01*
%TO.N,/SPI_MOSI*%
X138159200Y-73477300D02*
X137853900Y-73782600D01*
X143356710Y-81856710D02*
X143356710Y-81805090D01*
X145730800Y-77919880D02*
X145730800Y-77524720D01*
X145730800Y-77524720D02*
X145500000Y-77293920D01*
X143356710Y-81805090D02*
X145500000Y-79661800D01*
X137853900Y-81509000D02*
X137518600Y-81844300D01*
X137853900Y-73782600D02*
X137853900Y-81509000D01*
X145500000Y-77286100D02*
X142562800Y-74348900D01*
X145500000Y-79661800D02*
X145500000Y-78150680D01*
X145500000Y-78150680D02*
X145730800Y-77919880D01*
X145500000Y-77293920D02*
X145500000Y-77286100D01*
%TO.N,/SPI_MISO*%
X146888900Y-78000420D02*
X142760380Y-73871900D01*
X142085800Y-75008610D02*
X143716426Y-76639236D01*
X145355380Y-82168864D02*
X144526818Y-82997426D01*
X142365220Y-73871900D02*
X142085800Y-74151320D01*
X142760380Y-73871900D02*
X142365220Y-73871900D01*
X139956820Y-86775600D02*
X143776880Y-86775600D01*
X136153200Y-82971980D02*
X139956820Y-86775600D01*
X142085800Y-74151320D02*
X142085800Y-75008610D01*
X145355380Y-82000000D02*
X145355380Y-82168864D01*
X143776880Y-86775600D02*
X145355380Y-85197100D01*
X145355380Y-82000000D02*
X145355380Y-81943500D01*
X145355380Y-82013500D02*
X146888900Y-80479980D01*
X145355380Y-85197100D02*
X145355380Y-82000000D01*
X146888900Y-80479980D02*
X146888900Y-78070420D01*
%TO.N,/SX_NSS*%
X139940600Y-85258300D02*
X136888800Y-82206500D01*
X143492900Y-83532100D02*
X141766700Y-85258300D01*
X145157800Y-81466500D02*
X143492900Y-83131400D01*
X136888800Y-82206500D02*
X136888800Y-81365600D01*
X141766700Y-85258300D02*
X139940600Y-85258300D01*
X143492900Y-83131400D02*
X143492900Y-83532100D01*
%TO.N,/SX_NRST*%
X141137300Y-81209100D02*
X139201300Y-81209100D01*
X141577900Y-82429400D02*
X141577900Y-81649700D01*
X139201300Y-81209100D02*
X138719200Y-80727000D01*
X141577900Y-81649700D02*
X141137300Y-81209100D01*
X138719200Y-80727000D02*
X138719200Y-79100000D01*
%TO.N,Net-(C3-Pad2)*%
X135676200Y-81848200D02*
X135676200Y-83062800D01*
X138100200Y-72789100D02*
X137525200Y-73364100D01*
X137525200Y-79999200D02*
X135676200Y-81848200D01*
X135676200Y-83062800D02*
X132684300Y-86054700D01*
X137525200Y-73364100D02*
X137525200Y-79999200D01*
%TO.N,Net-(U2-RFC)*%
X144307800Y-83701520D02*
X144307800Y-85570100D01*
X144307800Y-85570100D02*
X143579300Y-86298600D01*
X144202000Y-83595720D02*
X144307800Y-83701520D01*
%TD*%
M02*
