%TF.GenerationSoftware,KiCad,Pcbnew,10.0.3*%
%TF.CreationDate,2026-07-15T13:13:48+05:30*%
%TF.ProjectId,loraa,6c6f7261-612e-46b6-9963-61645f706362,rev?*%
%TF.SameCoordinates,Original*%
%TF.FileFunction,Legend,Top*%
%TF.FilePolarity,Positive*%
%FSLAX46Y46*%
G04 Gerber Fmt 4.6, Leading zero omitted, Abs format (unit mm)*
G04 Created by KiCad (PCBNEW 10.0.3) date 2026-07-15 13:13:48*
%MOMM*%
%LPD*%
G01*
G04 APERTURE LIST*
%ADD10C,0.150000*%
%ADD11C,0.120000*%
%ADD12C,0.060000*%
%ADD13C,0.000000*%
%ADD14C,0.300000*%
G04 APERTURE END LIST*
D10*
X145333333Y-80899104D02*
X145809523Y-80899104D01*
X145238095Y-81184819D02*
X145571428Y-80184819D01*
X145571428Y-80184819D02*
X145904761Y-81184819D01*
X146238095Y-80661009D02*
X146571428Y-80661009D01*
X146714285Y-81184819D02*
X146238095Y-81184819D01*
X146238095Y-81184819D02*
X146238095Y-80184819D01*
X146238095Y-80184819D02*
X146714285Y-80184819D01*
X147666666Y-81184819D02*
X147095238Y-81184819D01*
X147380952Y-81184819D02*
X147380952Y-80184819D01*
X147380952Y-80184819D02*
X147285714Y-80327676D01*
X147285714Y-80327676D02*
X147190476Y-80422914D01*
X147190476Y-80422914D02*
X147095238Y-80470533D01*
X117877142Y-75199580D02*
X117829523Y-75247200D01*
X117829523Y-75247200D02*
X117686666Y-75294819D01*
X117686666Y-75294819D02*
X117591428Y-75294819D01*
X117591428Y-75294819D02*
X117448571Y-75247200D01*
X117448571Y-75247200D02*
X117353333Y-75151961D01*
X117353333Y-75151961D02*
X117305714Y-75056723D01*
X117305714Y-75056723D02*
X117258095Y-74866247D01*
X117258095Y-74866247D02*
X117258095Y-74723390D01*
X117258095Y-74723390D02*
X117305714Y-74532914D01*
X117305714Y-74532914D02*
X117353333Y-74437676D01*
X117353333Y-74437676D02*
X117448571Y-74342438D01*
X117448571Y-74342438D02*
X117591428Y-74294819D01*
X117591428Y-74294819D02*
X117686666Y-74294819D01*
X117686666Y-74294819D02*
X117829523Y-74342438D01*
X117829523Y-74342438D02*
X117877142Y-74390057D01*
X118258095Y-74390057D02*
X118305714Y-74342438D01*
X118305714Y-74342438D02*
X118400952Y-74294819D01*
X118400952Y-74294819D02*
X118639047Y-74294819D01*
X118639047Y-74294819D02*
X118734285Y-74342438D01*
X118734285Y-74342438D02*
X118781904Y-74390057D01*
X118781904Y-74390057D02*
X118829523Y-74485295D01*
X118829523Y-74485295D02*
X118829523Y-74580533D01*
X118829523Y-74580533D02*
X118781904Y-74723390D01*
X118781904Y-74723390D02*
X118210476Y-75294819D01*
X118210476Y-75294819D02*
X118829523Y-75294819D01*
X119686666Y-74628152D02*
X119686666Y-75294819D01*
X119448571Y-74247200D02*
X119210476Y-74961485D01*
X119210476Y-74961485D02*
X119829523Y-74961485D01*
X142333332Y-92592800D02*
X142190475Y-92545180D01*
X142190475Y-92545180D02*
X141952380Y-92545180D01*
X141952380Y-92545180D02*
X141857142Y-92592800D01*
X141857142Y-92592800D02*
X141809523Y-92640419D01*
X141809523Y-92640419D02*
X141761904Y-92735657D01*
X141761904Y-92735657D02*
X141761904Y-92830895D01*
X141761904Y-92830895D02*
X141809523Y-92926133D01*
X141809523Y-92926133D02*
X141857142Y-92973752D01*
X141857142Y-92973752D02*
X141952380Y-93021371D01*
X141952380Y-93021371D02*
X142142856Y-93068990D01*
X142142856Y-93068990D02*
X142238094Y-93116609D01*
X142238094Y-93116609D02*
X142285713Y-93164228D01*
X142285713Y-93164228D02*
X142333332Y-93259466D01*
X142333332Y-93259466D02*
X142333332Y-93354704D01*
X142333332Y-93354704D02*
X142285713Y-93449942D01*
X142285713Y-93449942D02*
X142238094Y-93497561D01*
X142238094Y-93497561D02*
X142142856Y-93545180D01*
X142142856Y-93545180D02*
X141904761Y-93545180D01*
X141904761Y-93545180D02*
X141761904Y-93497561D01*
X141428570Y-93545180D02*
X141190475Y-92545180D01*
X141190475Y-92545180D02*
X140999999Y-93259466D01*
X140999999Y-93259466D02*
X140809523Y-92545180D01*
X140809523Y-92545180D02*
X140571428Y-93545180D01*
X139666666Y-92545180D02*
X140238094Y-92545180D01*
X139952380Y-92545180D02*
X139952380Y-93545180D01*
X139952380Y-93545180D02*
X140047618Y-93402323D01*
X140047618Y-93402323D02*
X140142856Y-93307085D01*
X140142856Y-93307085D02*
X140238094Y-93259466D01*
X130166667Y-87907200D02*
X130309524Y-87954819D01*
X130309524Y-87954819D02*
X130547619Y-87954819D01*
X130547619Y-87954819D02*
X130642857Y-87907200D01*
X130642857Y-87907200D02*
X130690476Y-87859580D01*
X130690476Y-87859580D02*
X130738095Y-87764342D01*
X130738095Y-87764342D02*
X130738095Y-87669104D01*
X130738095Y-87669104D02*
X130690476Y-87573866D01*
X130690476Y-87573866D02*
X130642857Y-87526247D01*
X130642857Y-87526247D02*
X130547619Y-87478628D01*
X130547619Y-87478628D02*
X130357143Y-87431009D01*
X130357143Y-87431009D02*
X130261905Y-87383390D01*
X130261905Y-87383390D02*
X130214286Y-87335771D01*
X130214286Y-87335771D02*
X130166667Y-87240533D01*
X130166667Y-87240533D02*
X130166667Y-87145295D01*
X130166667Y-87145295D02*
X130214286Y-87050057D01*
X130214286Y-87050057D02*
X130261905Y-87002438D01*
X130261905Y-87002438D02*
X130357143Y-86954819D01*
X130357143Y-86954819D02*
X130595238Y-86954819D01*
X130595238Y-86954819D02*
X130738095Y-87002438D01*
X131071429Y-86954819D02*
X131309524Y-87954819D01*
X131309524Y-87954819D02*
X131500000Y-87240533D01*
X131500000Y-87240533D02*
X131690476Y-87954819D01*
X131690476Y-87954819D02*
X131928572Y-86954819D01*
X132261905Y-87050057D02*
X132309524Y-87002438D01*
X132309524Y-87002438D02*
X132404762Y-86954819D01*
X132404762Y-86954819D02*
X132642857Y-86954819D01*
X132642857Y-86954819D02*
X132738095Y-87002438D01*
X132738095Y-87002438D02*
X132785714Y-87050057D01*
X132785714Y-87050057D02*
X132833333Y-87145295D01*
X132833333Y-87145295D02*
X132833333Y-87240533D01*
X132833333Y-87240533D02*
X132785714Y-87383390D01*
X132785714Y-87383390D02*
X132214286Y-87954819D01*
X132214286Y-87954819D02*
X132833333Y-87954819D01*
X115699580Y-67666666D02*
X115747200Y-67714285D01*
X115747200Y-67714285D02*
X115794819Y-67857142D01*
X115794819Y-67857142D02*
X115794819Y-67952380D01*
X115794819Y-67952380D02*
X115747200Y-68095237D01*
X115747200Y-68095237D02*
X115651961Y-68190475D01*
X115651961Y-68190475D02*
X115556723Y-68238094D01*
X115556723Y-68238094D02*
X115366247Y-68285713D01*
X115366247Y-68285713D02*
X115223390Y-68285713D01*
X115223390Y-68285713D02*
X115032914Y-68238094D01*
X115032914Y-68238094D02*
X114937676Y-68190475D01*
X114937676Y-68190475D02*
X114842438Y-68095237D01*
X114842438Y-68095237D02*
X114794819Y-67952380D01*
X114794819Y-67952380D02*
X114794819Y-67857142D01*
X114794819Y-67857142D02*
X114842438Y-67714285D01*
X114842438Y-67714285D02*
X114890057Y-67666666D01*
X114890057Y-67285713D02*
X114842438Y-67238094D01*
X114842438Y-67238094D02*
X114794819Y-67142856D01*
X114794819Y-67142856D02*
X114794819Y-66904761D01*
X114794819Y-66904761D02*
X114842438Y-66809523D01*
X114842438Y-66809523D02*
X114890057Y-66761904D01*
X114890057Y-66761904D02*
X114985295Y-66714285D01*
X114985295Y-66714285D02*
X115080533Y-66714285D01*
X115080533Y-66714285D02*
X115223390Y-66761904D01*
X115223390Y-66761904D02*
X115794819Y-67333332D01*
X115794819Y-67333332D02*
X115794819Y-66714285D01*
X118833333Y-72699580D02*
X118785714Y-72747200D01*
X118785714Y-72747200D02*
X118642857Y-72794819D01*
X118642857Y-72794819D02*
X118547619Y-72794819D01*
X118547619Y-72794819D02*
X118404762Y-72747200D01*
X118404762Y-72747200D02*
X118309524Y-72651961D01*
X118309524Y-72651961D02*
X118261905Y-72556723D01*
X118261905Y-72556723D02*
X118214286Y-72366247D01*
X118214286Y-72366247D02*
X118214286Y-72223390D01*
X118214286Y-72223390D02*
X118261905Y-72032914D01*
X118261905Y-72032914D02*
X118309524Y-71937676D01*
X118309524Y-71937676D02*
X118404762Y-71842438D01*
X118404762Y-71842438D02*
X118547619Y-71794819D01*
X118547619Y-71794819D02*
X118642857Y-71794819D01*
X118642857Y-71794819D02*
X118785714Y-71842438D01*
X118785714Y-71842438D02*
X118833333Y-71890057D01*
X119690476Y-71794819D02*
X119500000Y-71794819D01*
X119500000Y-71794819D02*
X119404762Y-71842438D01*
X119404762Y-71842438D02*
X119357143Y-71890057D01*
X119357143Y-71890057D02*
X119261905Y-72032914D01*
X119261905Y-72032914D02*
X119214286Y-72223390D01*
X119214286Y-72223390D02*
X119214286Y-72604342D01*
X119214286Y-72604342D02*
X119261905Y-72699580D01*
X119261905Y-72699580D02*
X119309524Y-72747200D01*
X119309524Y-72747200D02*
X119404762Y-72794819D01*
X119404762Y-72794819D02*
X119595238Y-72794819D01*
X119595238Y-72794819D02*
X119690476Y-72747200D01*
X119690476Y-72747200D02*
X119738095Y-72699580D01*
X119738095Y-72699580D02*
X119785714Y-72604342D01*
X119785714Y-72604342D02*
X119785714Y-72366247D01*
X119785714Y-72366247D02*
X119738095Y-72271009D01*
X119738095Y-72271009D02*
X119690476Y-72223390D01*
X119690476Y-72223390D02*
X119595238Y-72175771D01*
X119595238Y-72175771D02*
X119404762Y-72175771D01*
X119404762Y-72175771D02*
X119309524Y-72223390D01*
X119309524Y-72223390D02*
X119261905Y-72271009D01*
X119261905Y-72271009D02*
X119214286Y-72366247D01*
X144199580Y-88662857D02*
X144247200Y-88710476D01*
X144247200Y-88710476D02*
X144294819Y-88853333D01*
X144294819Y-88853333D02*
X144294819Y-88948571D01*
X144294819Y-88948571D02*
X144247200Y-89091428D01*
X144247200Y-89091428D02*
X144151961Y-89186666D01*
X144151961Y-89186666D02*
X144056723Y-89234285D01*
X144056723Y-89234285D02*
X143866247Y-89281904D01*
X143866247Y-89281904D02*
X143723390Y-89281904D01*
X143723390Y-89281904D02*
X143532914Y-89234285D01*
X143532914Y-89234285D02*
X143437676Y-89186666D01*
X143437676Y-89186666D02*
X143342438Y-89091428D01*
X143342438Y-89091428D02*
X143294819Y-88948571D01*
X143294819Y-88948571D02*
X143294819Y-88853333D01*
X143294819Y-88853333D02*
X143342438Y-88710476D01*
X143342438Y-88710476D02*
X143390057Y-88662857D01*
X143390057Y-88281904D02*
X143342438Y-88234285D01*
X143342438Y-88234285D02*
X143294819Y-88139047D01*
X143294819Y-88139047D02*
X143294819Y-87900952D01*
X143294819Y-87900952D02*
X143342438Y-87805714D01*
X143342438Y-87805714D02*
X143390057Y-87758095D01*
X143390057Y-87758095D02*
X143485295Y-87710476D01*
X143485295Y-87710476D02*
X143580533Y-87710476D01*
X143580533Y-87710476D02*
X143723390Y-87758095D01*
X143723390Y-87758095D02*
X144294819Y-88329523D01*
X144294819Y-88329523D02*
X144294819Y-87710476D01*
X143294819Y-87091428D02*
X143294819Y-86996190D01*
X143294819Y-86996190D02*
X143342438Y-86900952D01*
X143342438Y-86900952D02*
X143390057Y-86853333D01*
X143390057Y-86853333D02*
X143485295Y-86805714D01*
X143485295Y-86805714D02*
X143675771Y-86758095D01*
X143675771Y-86758095D02*
X143913866Y-86758095D01*
X143913866Y-86758095D02*
X144104342Y-86805714D01*
X144104342Y-86805714D02*
X144199580Y-86853333D01*
X144199580Y-86853333D02*
X144247200Y-86900952D01*
X144247200Y-86900952D02*
X144294819Y-86996190D01*
X144294819Y-86996190D02*
X144294819Y-87091428D01*
X144294819Y-87091428D02*
X144247200Y-87186666D01*
X144247200Y-87186666D02*
X144199580Y-87234285D01*
X144199580Y-87234285D02*
X144104342Y-87281904D01*
X144104342Y-87281904D02*
X143913866Y-87329523D01*
X143913866Y-87329523D02*
X143675771Y-87329523D01*
X143675771Y-87329523D02*
X143485295Y-87281904D01*
X143485295Y-87281904D02*
X143390057Y-87234285D01*
X143390057Y-87234285D02*
X143342438Y-87186666D01*
X143342438Y-87186666D02*
X143294819Y-87091428D01*
X138877142Y-85699580D02*
X138829523Y-85747200D01*
X138829523Y-85747200D02*
X138686666Y-85794819D01*
X138686666Y-85794819D02*
X138591428Y-85794819D01*
X138591428Y-85794819D02*
X138448571Y-85747200D01*
X138448571Y-85747200D02*
X138353333Y-85651961D01*
X138353333Y-85651961D02*
X138305714Y-85556723D01*
X138305714Y-85556723D02*
X138258095Y-85366247D01*
X138258095Y-85366247D02*
X138258095Y-85223390D01*
X138258095Y-85223390D02*
X138305714Y-85032914D01*
X138305714Y-85032914D02*
X138353333Y-84937676D01*
X138353333Y-84937676D02*
X138448571Y-84842438D01*
X138448571Y-84842438D02*
X138591428Y-84794819D01*
X138591428Y-84794819D02*
X138686666Y-84794819D01*
X138686666Y-84794819D02*
X138829523Y-84842438D01*
X138829523Y-84842438D02*
X138877142Y-84890057D01*
X139829523Y-85794819D02*
X139258095Y-85794819D01*
X139543809Y-85794819D02*
X139543809Y-84794819D01*
X139543809Y-84794819D02*
X139448571Y-84937676D01*
X139448571Y-84937676D02*
X139353333Y-85032914D01*
X139353333Y-85032914D02*
X139258095Y-85080533D01*
X140162857Y-84794819D02*
X140829523Y-84794819D01*
X140829523Y-84794819D02*
X140400952Y-85794819D01*
X114699580Y-67666666D02*
X114747200Y-67714285D01*
X114747200Y-67714285D02*
X114794819Y-67857142D01*
X114794819Y-67857142D02*
X114794819Y-67952380D01*
X114794819Y-67952380D02*
X114747200Y-68095237D01*
X114747200Y-68095237D02*
X114651961Y-68190475D01*
X114651961Y-68190475D02*
X114556723Y-68238094D01*
X114556723Y-68238094D02*
X114366247Y-68285713D01*
X114366247Y-68285713D02*
X114223390Y-68285713D01*
X114223390Y-68285713D02*
X114032914Y-68238094D01*
X114032914Y-68238094D02*
X113937676Y-68190475D01*
X113937676Y-68190475D02*
X113842438Y-68095237D01*
X113842438Y-68095237D02*
X113794819Y-67952380D01*
X113794819Y-67952380D02*
X113794819Y-67857142D01*
X113794819Y-67857142D02*
X113842438Y-67714285D01*
X113842438Y-67714285D02*
X113890057Y-67666666D01*
X113794819Y-66761904D02*
X113794819Y-67238094D01*
X113794819Y-67238094D02*
X114271009Y-67285713D01*
X114271009Y-67285713D02*
X114223390Y-67238094D01*
X114223390Y-67238094D02*
X114175771Y-67142856D01*
X114175771Y-67142856D02*
X114175771Y-66904761D01*
X114175771Y-66904761D02*
X114223390Y-66809523D01*
X114223390Y-66809523D02*
X114271009Y-66761904D01*
X114271009Y-66761904D02*
X114366247Y-66714285D01*
X114366247Y-66714285D02*
X114604342Y-66714285D01*
X114604342Y-66714285D02*
X114699580Y-66761904D01*
X114699580Y-66761904D02*
X114747200Y-66809523D01*
X114747200Y-66809523D02*
X114794819Y-66904761D01*
X114794819Y-66904761D02*
X114794819Y-67142856D01*
X114794819Y-67142856D02*
X114747200Y-67238094D01*
X114747200Y-67238094D02*
X114699580Y-67285713D01*
X123823333Y-71784819D02*
X123490000Y-71308628D01*
X123251905Y-71784819D02*
X123251905Y-70784819D01*
X123251905Y-70784819D02*
X123632857Y-70784819D01*
X123632857Y-70784819D02*
X123728095Y-70832438D01*
X123728095Y-70832438D02*
X123775714Y-70880057D01*
X123775714Y-70880057D02*
X123823333Y-70975295D01*
X123823333Y-70975295D02*
X123823333Y-71118152D01*
X123823333Y-71118152D02*
X123775714Y-71213390D01*
X123775714Y-71213390D02*
X123728095Y-71261009D01*
X123728095Y-71261009D02*
X123632857Y-71308628D01*
X123632857Y-71308628D02*
X123251905Y-71308628D01*
X124156667Y-70784819D02*
X124823333Y-70784819D01*
X124823333Y-70784819D02*
X124394762Y-71784819D01*
X130825595Y-64219819D02*
X130825595Y-65029342D01*
X130825595Y-65029342D02*
X130873214Y-65124580D01*
X130873214Y-65124580D02*
X130920833Y-65172200D01*
X130920833Y-65172200D02*
X131016071Y-65219819D01*
X131016071Y-65219819D02*
X131206547Y-65219819D01*
X131206547Y-65219819D02*
X131301785Y-65172200D01*
X131301785Y-65172200D02*
X131349404Y-65124580D01*
X131349404Y-65124580D02*
X131397023Y-65029342D01*
X131397023Y-65029342D02*
X131397023Y-64219819D01*
X132397023Y-65219819D02*
X131825595Y-65219819D01*
X132111309Y-65219819D02*
X132111309Y-64219819D01*
X132111309Y-64219819D02*
X132016071Y-64362676D01*
X132016071Y-64362676D02*
X131920833Y-64457914D01*
X131920833Y-64457914D02*
X131825595Y-64505533D01*
X115699580Y-75142857D02*
X115747200Y-75190476D01*
X115747200Y-75190476D02*
X115794819Y-75333333D01*
X115794819Y-75333333D02*
X115794819Y-75428571D01*
X115794819Y-75428571D02*
X115747200Y-75571428D01*
X115747200Y-75571428D02*
X115651961Y-75666666D01*
X115651961Y-75666666D02*
X115556723Y-75714285D01*
X115556723Y-75714285D02*
X115366247Y-75761904D01*
X115366247Y-75761904D02*
X115223390Y-75761904D01*
X115223390Y-75761904D02*
X115032914Y-75714285D01*
X115032914Y-75714285D02*
X114937676Y-75666666D01*
X114937676Y-75666666D02*
X114842438Y-75571428D01*
X114842438Y-75571428D02*
X114794819Y-75428571D01*
X114794819Y-75428571D02*
X114794819Y-75333333D01*
X114794819Y-75333333D02*
X114842438Y-75190476D01*
X114842438Y-75190476D02*
X114890057Y-75142857D01*
X115794819Y-74190476D02*
X115794819Y-74761904D01*
X115794819Y-74476190D02*
X114794819Y-74476190D01*
X114794819Y-74476190D02*
X114937676Y-74571428D01*
X114937676Y-74571428D02*
X115032914Y-74666666D01*
X115032914Y-74666666D02*
X115080533Y-74761904D01*
X114794819Y-73285714D02*
X114794819Y-73761904D01*
X114794819Y-73761904D02*
X115271009Y-73809523D01*
X115271009Y-73809523D02*
X115223390Y-73761904D01*
X115223390Y-73761904D02*
X115175771Y-73666666D01*
X115175771Y-73666666D02*
X115175771Y-73428571D01*
X115175771Y-73428571D02*
X115223390Y-73333333D01*
X115223390Y-73333333D02*
X115271009Y-73285714D01*
X115271009Y-73285714D02*
X115366247Y-73238095D01*
X115366247Y-73238095D02*
X115604342Y-73238095D01*
X115604342Y-73238095D02*
X115699580Y-73285714D01*
X115699580Y-73285714D02*
X115747200Y-73333333D01*
X115747200Y-73333333D02*
X115794819Y-73428571D01*
X115794819Y-73428571D02*
X115794819Y-73666666D01*
X115794819Y-73666666D02*
X115747200Y-73761904D01*
X115747200Y-73761904D02*
X115699580Y-73809523D01*
X120699580Y-73642857D02*
X120747200Y-73690476D01*
X120747200Y-73690476D02*
X120794819Y-73833333D01*
X120794819Y-73833333D02*
X120794819Y-73928571D01*
X120794819Y-73928571D02*
X120747200Y-74071428D01*
X120747200Y-74071428D02*
X120651961Y-74166666D01*
X120651961Y-74166666D02*
X120556723Y-74214285D01*
X120556723Y-74214285D02*
X120366247Y-74261904D01*
X120366247Y-74261904D02*
X120223390Y-74261904D01*
X120223390Y-74261904D02*
X120032914Y-74214285D01*
X120032914Y-74214285D02*
X119937676Y-74166666D01*
X119937676Y-74166666D02*
X119842438Y-74071428D01*
X119842438Y-74071428D02*
X119794819Y-73928571D01*
X119794819Y-73928571D02*
X119794819Y-73833333D01*
X119794819Y-73833333D02*
X119842438Y-73690476D01*
X119842438Y-73690476D02*
X119890057Y-73642857D01*
X119890057Y-73261904D02*
X119842438Y-73214285D01*
X119842438Y-73214285D02*
X119794819Y-73119047D01*
X119794819Y-73119047D02*
X119794819Y-72880952D01*
X119794819Y-72880952D02*
X119842438Y-72785714D01*
X119842438Y-72785714D02*
X119890057Y-72738095D01*
X119890057Y-72738095D02*
X119985295Y-72690476D01*
X119985295Y-72690476D02*
X120080533Y-72690476D01*
X120080533Y-72690476D02*
X120223390Y-72738095D01*
X120223390Y-72738095D02*
X120794819Y-73309523D01*
X120794819Y-73309523D02*
X120794819Y-72690476D01*
X119890057Y-72309523D02*
X119842438Y-72261904D01*
X119842438Y-72261904D02*
X119794819Y-72166666D01*
X119794819Y-72166666D02*
X119794819Y-71928571D01*
X119794819Y-71928571D02*
X119842438Y-71833333D01*
X119842438Y-71833333D02*
X119890057Y-71785714D01*
X119890057Y-71785714D02*
X119985295Y-71738095D01*
X119985295Y-71738095D02*
X120080533Y-71738095D01*
X120080533Y-71738095D02*
X120223390Y-71785714D01*
X120223390Y-71785714D02*
X120794819Y-72357142D01*
X120794819Y-72357142D02*
X120794819Y-71738095D01*
X130337142Y-88519580D02*
X130289523Y-88567200D01*
X130289523Y-88567200D02*
X130146666Y-88614819D01*
X130146666Y-88614819D02*
X130051428Y-88614819D01*
X130051428Y-88614819D02*
X129908571Y-88567200D01*
X129908571Y-88567200D02*
X129813333Y-88471961D01*
X129813333Y-88471961D02*
X129765714Y-88376723D01*
X129765714Y-88376723D02*
X129718095Y-88186247D01*
X129718095Y-88186247D02*
X129718095Y-88043390D01*
X129718095Y-88043390D02*
X129765714Y-87852914D01*
X129765714Y-87852914D02*
X129813333Y-87757676D01*
X129813333Y-87757676D02*
X129908571Y-87662438D01*
X129908571Y-87662438D02*
X130051428Y-87614819D01*
X130051428Y-87614819D02*
X130146666Y-87614819D01*
X130146666Y-87614819D02*
X130289523Y-87662438D01*
X130289523Y-87662438D02*
X130337142Y-87710057D01*
X131289523Y-88614819D02*
X130718095Y-88614819D01*
X131003809Y-88614819D02*
X131003809Y-87614819D01*
X131003809Y-87614819D02*
X130908571Y-87757676D01*
X130908571Y-87757676D02*
X130813333Y-87852914D01*
X130813333Y-87852914D02*
X130718095Y-87900533D01*
X132146666Y-87948152D02*
X132146666Y-88614819D01*
X131908571Y-87567200D02*
X131670476Y-88281485D01*
X131670476Y-88281485D02*
X132289523Y-88281485D01*
X135699580Y-73622857D02*
X135747200Y-73670476D01*
X135747200Y-73670476D02*
X135794819Y-73813333D01*
X135794819Y-73813333D02*
X135794819Y-73908571D01*
X135794819Y-73908571D02*
X135747200Y-74051428D01*
X135747200Y-74051428D02*
X135651961Y-74146666D01*
X135651961Y-74146666D02*
X135556723Y-74194285D01*
X135556723Y-74194285D02*
X135366247Y-74241904D01*
X135366247Y-74241904D02*
X135223390Y-74241904D01*
X135223390Y-74241904D02*
X135032914Y-74194285D01*
X135032914Y-74194285D02*
X134937676Y-74146666D01*
X134937676Y-74146666D02*
X134842438Y-74051428D01*
X134842438Y-74051428D02*
X134794819Y-73908571D01*
X134794819Y-73908571D02*
X134794819Y-73813333D01*
X134794819Y-73813333D02*
X134842438Y-73670476D01*
X134842438Y-73670476D02*
X134890057Y-73622857D01*
X134890057Y-73241904D02*
X134842438Y-73194285D01*
X134842438Y-73194285D02*
X134794819Y-73099047D01*
X134794819Y-73099047D02*
X134794819Y-72860952D01*
X134794819Y-72860952D02*
X134842438Y-72765714D01*
X134842438Y-72765714D02*
X134890057Y-72718095D01*
X134890057Y-72718095D02*
X134985295Y-72670476D01*
X134985295Y-72670476D02*
X135080533Y-72670476D01*
X135080533Y-72670476D02*
X135223390Y-72718095D01*
X135223390Y-72718095D02*
X135794819Y-73289523D01*
X135794819Y-73289523D02*
X135794819Y-72670476D01*
X134794819Y-72337142D02*
X134794819Y-71718095D01*
X134794819Y-71718095D02*
X135175771Y-72051428D01*
X135175771Y-72051428D02*
X135175771Y-71908571D01*
X135175771Y-71908571D02*
X135223390Y-71813333D01*
X135223390Y-71813333D02*
X135271009Y-71765714D01*
X135271009Y-71765714D02*
X135366247Y-71718095D01*
X135366247Y-71718095D02*
X135604342Y-71718095D01*
X135604342Y-71718095D02*
X135699580Y-71765714D01*
X135699580Y-71765714D02*
X135747200Y-71813333D01*
X135747200Y-71813333D02*
X135794819Y-71908571D01*
X135794819Y-71908571D02*
X135794819Y-72194285D01*
X135794819Y-72194285D02*
X135747200Y-72289523D01*
X135747200Y-72289523D02*
X135699580Y-72337142D01*
X125323333Y-83284819D02*
X124990000Y-82808628D01*
X124751905Y-83284819D02*
X124751905Y-82284819D01*
X124751905Y-82284819D02*
X125132857Y-82284819D01*
X125132857Y-82284819D02*
X125228095Y-82332438D01*
X125228095Y-82332438D02*
X125275714Y-82380057D01*
X125275714Y-82380057D02*
X125323333Y-82475295D01*
X125323333Y-82475295D02*
X125323333Y-82618152D01*
X125323333Y-82618152D02*
X125275714Y-82713390D01*
X125275714Y-82713390D02*
X125228095Y-82761009D01*
X125228095Y-82761009D02*
X125132857Y-82808628D01*
X125132857Y-82808628D02*
X124751905Y-82808628D01*
X126180476Y-82284819D02*
X125990000Y-82284819D01*
X125990000Y-82284819D02*
X125894762Y-82332438D01*
X125894762Y-82332438D02*
X125847143Y-82380057D01*
X125847143Y-82380057D02*
X125751905Y-82522914D01*
X125751905Y-82522914D02*
X125704286Y-82713390D01*
X125704286Y-82713390D02*
X125704286Y-83094342D01*
X125704286Y-83094342D02*
X125751905Y-83189580D01*
X125751905Y-83189580D02*
X125799524Y-83237200D01*
X125799524Y-83237200D02*
X125894762Y-83284819D01*
X125894762Y-83284819D02*
X126085238Y-83284819D01*
X126085238Y-83284819D02*
X126180476Y-83237200D01*
X126180476Y-83237200D02*
X126228095Y-83189580D01*
X126228095Y-83189580D02*
X126275714Y-83094342D01*
X126275714Y-83094342D02*
X126275714Y-82856247D01*
X126275714Y-82856247D02*
X126228095Y-82761009D01*
X126228095Y-82761009D02*
X126180476Y-82713390D01*
X126180476Y-82713390D02*
X126085238Y-82665771D01*
X126085238Y-82665771D02*
X125894762Y-82665771D01*
X125894762Y-82665771D02*
X125799524Y-82713390D01*
X125799524Y-82713390D02*
X125751905Y-82761009D01*
X125751905Y-82761009D02*
X125704286Y-82856247D01*
X123813333Y-68199580D02*
X123765714Y-68247200D01*
X123765714Y-68247200D02*
X123622857Y-68294819D01*
X123622857Y-68294819D02*
X123527619Y-68294819D01*
X123527619Y-68294819D02*
X123384762Y-68247200D01*
X123384762Y-68247200D02*
X123289524Y-68151961D01*
X123289524Y-68151961D02*
X123241905Y-68056723D01*
X123241905Y-68056723D02*
X123194286Y-67866247D01*
X123194286Y-67866247D02*
X123194286Y-67723390D01*
X123194286Y-67723390D02*
X123241905Y-67532914D01*
X123241905Y-67532914D02*
X123289524Y-67437676D01*
X123289524Y-67437676D02*
X123384762Y-67342438D01*
X123384762Y-67342438D02*
X123527619Y-67294819D01*
X123527619Y-67294819D02*
X123622857Y-67294819D01*
X123622857Y-67294819D02*
X123765714Y-67342438D01*
X123765714Y-67342438D02*
X123813333Y-67390057D01*
X124289524Y-68294819D02*
X124480000Y-68294819D01*
X124480000Y-68294819D02*
X124575238Y-68247200D01*
X124575238Y-68247200D02*
X124622857Y-68199580D01*
X124622857Y-68199580D02*
X124718095Y-68056723D01*
X124718095Y-68056723D02*
X124765714Y-67866247D01*
X124765714Y-67866247D02*
X124765714Y-67485295D01*
X124765714Y-67485295D02*
X124718095Y-67390057D01*
X124718095Y-67390057D02*
X124670476Y-67342438D01*
X124670476Y-67342438D02*
X124575238Y-67294819D01*
X124575238Y-67294819D02*
X124384762Y-67294819D01*
X124384762Y-67294819D02*
X124289524Y-67342438D01*
X124289524Y-67342438D02*
X124241905Y-67390057D01*
X124241905Y-67390057D02*
X124194286Y-67485295D01*
X124194286Y-67485295D02*
X124194286Y-67723390D01*
X124194286Y-67723390D02*
X124241905Y-67818628D01*
X124241905Y-67818628D02*
X124289524Y-67866247D01*
X124289524Y-67866247D02*
X124384762Y-67913866D01*
X124384762Y-67913866D02*
X124575238Y-67913866D01*
X124575238Y-67913866D02*
X124670476Y-67866247D01*
X124670476Y-67866247D02*
X124718095Y-67818628D01*
X124718095Y-67818628D02*
X124765714Y-67723390D01*
X118666666Y-83954819D02*
X118666666Y-84669104D01*
X118666666Y-84669104D02*
X118619047Y-84811961D01*
X118619047Y-84811961D02*
X118523809Y-84907200D01*
X118523809Y-84907200D02*
X118380952Y-84954819D01*
X118380952Y-84954819D02*
X118285714Y-84954819D01*
X119666666Y-84954819D02*
X119095238Y-84954819D01*
X119380952Y-84954819D02*
X119380952Y-83954819D01*
X119380952Y-83954819D02*
X119285714Y-84097676D01*
X119285714Y-84097676D02*
X119190476Y-84192914D01*
X119190476Y-84192914D02*
X119095238Y-84240533D01*
X124813333Y-72784819D02*
X124480000Y-72308628D01*
X124241905Y-72784819D02*
X124241905Y-71784819D01*
X124241905Y-71784819D02*
X124622857Y-71784819D01*
X124622857Y-71784819D02*
X124718095Y-71832438D01*
X124718095Y-71832438D02*
X124765714Y-71880057D01*
X124765714Y-71880057D02*
X124813333Y-71975295D01*
X124813333Y-71975295D02*
X124813333Y-72118152D01*
X124813333Y-72118152D02*
X124765714Y-72213390D01*
X124765714Y-72213390D02*
X124718095Y-72261009D01*
X124718095Y-72261009D02*
X124622857Y-72308628D01*
X124622857Y-72308628D02*
X124241905Y-72308628D01*
X125670476Y-72118152D02*
X125670476Y-72784819D01*
X125432381Y-71737200D02*
X125194286Y-72451485D01*
X125194286Y-72451485D02*
X125813333Y-72451485D01*
X159534819Y-92206666D02*
X159534819Y-92682856D01*
X159534819Y-92682856D02*
X158534819Y-92682856D01*
X158630057Y-91920951D02*
X158582438Y-91873332D01*
X158582438Y-91873332D02*
X158534819Y-91778094D01*
X158534819Y-91778094D02*
X158534819Y-91539999D01*
X158534819Y-91539999D02*
X158582438Y-91444761D01*
X158582438Y-91444761D02*
X158630057Y-91397142D01*
X158630057Y-91397142D02*
X158725295Y-91349523D01*
X158725295Y-91349523D02*
X158820533Y-91349523D01*
X158820533Y-91349523D02*
X158963390Y-91397142D01*
X158963390Y-91397142D02*
X159534819Y-91968570D01*
X159534819Y-91968570D02*
X159534819Y-91349523D01*
X146284819Y-87151666D02*
X146284819Y-87627856D01*
X146284819Y-87627856D02*
X145284819Y-87627856D01*
X145284819Y-86913570D02*
X145284819Y-86294523D01*
X145284819Y-86294523D02*
X145665771Y-86627856D01*
X145665771Y-86627856D02*
X145665771Y-86484999D01*
X145665771Y-86484999D02*
X145713390Y-86389761D01*
X145713390Y-86389761D02*
X145761009Y-86342142D01*
X145761009Y-86342142D02*
X145856247Y-86294523D01*
X145856247Y-86294523D02*
X146094342Y-86294523D01*
X146094342Y-86294523D02*
X146189580Y-86342142D01*
X146189580Y-86342142D02*
X146237200Y-86389761D01*
X146237200Y-86389761D02*
X146284819Y-86484999D01*
X146284819Y-86484999D02*
X146284819Y-86770713D01*
X146284819Y-86770713D02*
X146237200Y-86865951D01*
X146237200Y-86865951D02*
X146189580Y-86913570D01*
X122857142Y-82699580D02*
X122809523Y-82747200D01*
X122809523Y-82747200D02*
X122666666Y-82794819D01*
X122666666Y-82794819D02*
X122571428Y-82794819D01*
X122571428Y-82794819D02*
X122428571Y-82747200D01*
X122428571Y-82747200D02*
X122333333Y-82651961D01*
X122333333Y-82651961D02*
X122285714Y-82556723D01*
X122285714Y-82556723D02*
X122238095Y-82366247D01*
X122238095Y-82366247D02*
X122238095Y-82223390D01*
X122238095Y-82223390D02*
X122285714Y-82032914D01*
X122285714Y-82032914D02*
X122333333Y-81937676D01*
X122333333Y-81937676D02*
X122428571Y-81842438D01*
X122428571Y-81842438D02*
X122571428Y-81794819D01*
X122571428Y-81794819D02*
X122666666Y-81794819D01*
X122666666Y-81794819D02*
X122809523Y-81842438D01*
X122809523Y-81842438D02*
X122857142Y-81890057D01*
X123238095Y-81890057D02*
X123285714Y-81842438D01*
X123285714Y-81842438D02*
X123380952Y-81794819D01*
X123380952Y-81794819D02*
X123619047Y-81794819D01*
X123619047Y-81794819D02*
X123714285Y-81842438D01*
X123714285Y-81842438D02*
X123761904Y-81890057D01*
X123761904Y-81890057D02*
X123809523Y-81985295D01*
X123809523Y-81985295D02*
X123809523Y-82080533D01*
X123809523Y-82080533D02*
X123761904Y-82223390D01*
X123761904Y-82223390D02*
X123190476Y-82794819D01*
X123190476Y-82794819D02*
X123809523Y-82794819D01*
X124761904Y-82794819D02*
X124190476Y-82794819D01*
X124476190Y-82794819D02*
X124476190Y-81794819D01*
X124476190Y-81794819D02*
X124380952Y-81937676D01*
X124380952Y-81937676D02*
X124285714Y-82032914D01*
X124285714Y-82032914D02*
X124190476Y-82080533D01*
X146199580Y-90122857D02*
X146247200Y-90170476D01*
X146247200Y-90170476D02*
X146294819Y-90313333D01*
X146294819Y-90313333D02*
X146294819Y-90408571D01*
X146294819Y-90408571D02*
X146247200Y-90551428D01*
X146247200Y-90551428D02*
X146151961Y-90646666D01*
X146151961Y-90646666D02*
X146056723Y-90694285D01*
X146056723Y-90694285D02*
X145866247Y-90741904D01*
X145866247Y-90741904D02*
X145723390Y-90741904D01*
X145723390Y-90741904D02*
X145532914Y-90694285D01*
X145532914Y-90694285D02*
X145437676Y-90646666D01*
X145437676Y-90646666D02*
X145342438Y-90551428D01*
X145342438Y-90551428D02*
X145294819Y-90408571D01*
X145294819Y-90408571D02*
X145294819Y-90313333D01*
X145294819Y-90313333D02*
X145342438Y-90170476D01*
X145342438Y-90170476D02*
X145390057Y-90122857D01*
X146294819Y-89170476D02*
X146294819Y-89741904D01*
X146294819Y-89456190D02*
X145294819Y-89456190D01*
X145294819Y-89456190D02*
X145437676Y-89551428D01*
X145437676Y-89551428D02*
X145532914Y-89646666D01*
X145532914Y-89646666D02*
X145580533Y-89741904D01*
X146294819Y-88694285D02*
X146294819Y-88503809D01*
X146294819Y-88503809D02*
X146247200Y-88408571D01*
X146247200Y-88408571D02*
X146199580Y-88360952D01*
X146199580Y-88360952D02*
X146056723Y-88265714D01*
X146056723Y-88265714D02*
X145866247Y-88218095D01*
X145866247Y-88218095D02*
X145485295Y-88218095D01*
X145485295Y-88218095D02*
X145390057Y-88265714D01*
X145390057Y-88265714D02*
X145342438Y-88313333D01*
X145342438Y-88313333D02*
X145294819Y-88408571D01*
X145294819Y-88408571D02*
X145294819Y-88599047D01*
X145294819Y-88599047D02*
X145342438Y-88694285D01*
X145342438Y-88694285D02*
X145390057Y-88741904D01*
X145390057Y-88741904D02*
X145485295Y-88789523D01*
X145485295Y-88789523D02*
X145723390Y-88789523D01*
X145723390Y-88789523D02*
X145818628Y-88741904D01*
X145818628Y-88741904D02*
X145866247Y-88694285D01*
X145866247Y-88694285D02*
X145913866Y-88599047D01*
X145913866Y-88599047D02*
X145913866Y-88408571D01*
X145913866Y-88408571D02*
X145866247Y-88313333D01*
X145866247Y-88313333D02*
X145818628Y-88265714D01*
X145818628Y-88265714D02*
X145723390Y-88218095D01*
X118397142Y-73729580D02*
X118349523Y-73777200D01*
X118349523Y-73777200D02*
X118206666Y-73824819D01*
X118206666Y-73824819D02*
X118111428Y-73824819D01*
X118111428Y-73824819D02*
X117968571Y-73777200D01*
X117968571Y-73777200D02*
X117873333Y-73681961D01*
X117873333Y-73681961D02*
X117825714Y-73586723D01*
X117825714Y-73586723D02*
X117778095Y-73396247D01*
X117778095Y-73396247D02*
X117778095Y-73253390D01*
X117778095Y-73253390D02*
X117825714Y-73062914D01*
X117825714Y-73062914D02*
X117873333Y-72967676D01*
X117873333Y-72967676D02*
X117968571Y-72872438D01*
X117968571Y-72872438D02*
X118111428Y-72824819D01*
X118111428Y-72824819D02*
X118206666Y-72824819D01*
X118206666Y-72824819D02*
X118349523Y-72872438D01*
X118349523Y-72872438D02*
X118397142Y-72920057D01*
X119349523Y-73824819D02*
X118778095Y-73824819D01*
X119063809Y-73824819D02*
X119063809Y-72824819D01*
X119063809Y-72824819D02*
X118968571Y-72967676D01*
X118968571Y-72967676D02*
X118873333Y-73062914D01*
X118873333Y-73062914D02*
X118778095Y-73110533D01*
X119730476Y-72920057D02*
X119778095Y-72872438D01*
X119778095Y-72872438D02*
X119873333Y-72824819D01*
X119873333Y-72824819D02*
X120111428Y-72824819D01*
X120111428Y-72824819D02*
X120206666Y-72872438D01*
X120206666Y-72872438D02*
X120254285Y-72920057D01*
X120254285Y-72920057D02*
X120301904Y-73015295D01*
X120301904Y-73015295D02*
X120301904Y-73110533D01*
X120301904Y-73110533D02*
X120254285Y-73253390D01*
X120254285Y-73253390D02*
X119682857Y-73824819D01*
X119682857Y-73824819D02*
X120301904Y-73824819D01*
X116199580Y-70122857D02*
X116247200Y-70170476D01*
X116247200Y-70170476D02*
X116294819Y-70313333D01*
X116294819Y-70313333D02*
X116294819Y-70408571D01*
X116294819Y-70408571D02*
X116247200Y-70551428D01*
X116247200Y-70551428D02*
X116151961Y-70646666D01*
X116151961Y-70646666D02*
X116056723Y-70694285D01*
X116056723Y-70694285D02*
X115866247Y-70741904D01*
X115866247Y-70741904D02*
X115723390Y-70741904D01*
X115723390Y-70741904D02*
X115532914Y-70694285D01*
X115532914Y-70694285D02*
X115437676Y-70646666D01*
X115437676Y-70646666D02*
X115342438Y-70551428D01*
X115342438Y-70551428D02*
X115294819Y-70408571D01*
X115294819Y-70408571D02*
X115294819Y-70313333D01*
X115294819Y-70313333D02*
X115342438Y-70170476D01*
X115342438Y-70170476D02*
X115390057Y-70122857D01*
X116294819Y-69170476D02*
X116294819Y-69741904D01*
X116294819Y-69456190D02*
X115294819Y-69456190D01*
X115294819Y-69456190D02*
X115437676Y-69551428D01*
X115437676Y-69551428D02*
X115532914Y-69646666D01*
X115532914Y-69646666D02*
X115580533Y-69741904D01*
X115294819Y-68837142D02*
X115294819Y-68218095D01*
X115294819Y-68218095D02*
X115675771Y-68551428D01*
X115675771Y-68551428D02*
X115675771Y-68408571D01*
X115675771Y-68408571D02*
X115723390Y-68313333D01*
X115723390Y-68313333D02*
X115771009Y-68265714D01*
X115771009Y-68265714D02*
X115866247Y-68218095D01*
X115866247Y-68218095D02*
X116104342Y-68218095D01*
X116104342Y-68218095D02*
X116199580Y-68265714D01*
X116199580Y-68265714D02*
X116247200Y-68313333D01*
X116247200Y-68313333D02*
X116294819Y-68408571D01*
X116294819Y-68408571D02*
X116294819Y-68694285D01*
X116294819Y-68694285D02*
X116247200Y-68789523D01*
X116247200Y-68789523D02*
X116199580Y-68837142D01*
X137833333Y-79284819D02*
X137357143Y-79284819D01*
X137357143Y-79284819D02*
X137357143Y-78284819D01*
X138690476Y-79284819D02*
X138119048Y-79284819D01*
X138404762Y-79284819D02*
X138404762Y-78284819D01*
X138404762Y-78284819D02*
X138309524Y-78427676D01*
X138309524Y-78427676D02*
X138214286Y-78522914D01*
X138214286Y-78522914D02*
X138119048Y-78570533D01*
X131175595Y-73524819D02*
X131175595Y-74334342D01*
X131175595Y-74334342D02*
X131223214Y-74429580D01*
X131223214Y-74429580D02*
X131270833Y-74477200D01*
X131270833Y-74477200D02*
X131366071Y-74524819D01*
X131366071Y-74524819D02*
X131556547Y-74524819D01*
X131556547Y-74524819D02*
X131651785Y-74477200D01*
X131651785Y-74477200D02*
X131699404Y-74429580D01*
X131699404Y-74429580D02*
X131747023Y-74334342D01*
X131747023Y-74334342D02*
X131747023Y-73524819D01*
X132127976Y-73524819D02*
X132747023Y-73524819D01*
X132747023Y-73524819D02*
X132413690Y-73905771D01*
X132413690Y-73905771D02*
X132556547Y-73905771D01*
X132556547Y-73905771D02*
X132651785Y-73953390D01*
X132651785Y-73953390D02*
X132699404Y-74001009D01*
X132699404Y-74001009D02*
X132747023Y-74096247D01*
X132747023Y-74096247D02*
X132747023Y-74334342D01*
X132747023Y-74334342D02*
X132699404Y-74429580D01*
X132699404Y-74429580D02*
X132651785Y-74477200D01*
X132651785Y-74477200D02*
X132556547Y-74524819D01*
X132556547Y-74524819D02*
X132270833Y-74524819D01*
X132270833Y-74524819D02*
X132175595Y-74477200D01*
X132175595Y-74477200D02*
X132127976Y-74429580D01*
X145404819Y-80111904D02*
X146214342Y-80111904D01*
X146214342Y-80111904D02*
X146309580Y-80064285D01*
X146309580Y-80064285D02*
X146357200Y-80016666D01*
X146357200Y-80016666D02*
X146404819Y-79921428D01*
X146404819Y-79921428D02*
X146404819Y-79730952D01*
X146404819Y-79730952D02*
X146357200Y-79635714D01*
X146357200Y-79635714D02*
X146309580Y-79588095D01*
X146309580Y-79588095D02*
X146214342Y-79540476D01*
X146214342Y-79540476D02*
X145404819Y-79540476D01*
X145738152Y-78635714D02*
X146404819Y-78635714D01*
X145357200Y-78873809D02*
X146071485Y-79111904D01*
X146071485Y-79111904D02*
X146071485Y-78492857D01*
X127199580Y-87166666D02*
X127247200Y-87214285D01*
X127247200Y-87214285D02*
X127294819Y-87357142D01*
X127294819Y-87357142D02*
X127294819Y-87452380D01*
X127294819Y-87452380D02*
X127247200Y-87595237D01*
X127247200Y-87595237D02*
X127151961Y-87690475D01*
X127151961Y-87690475D02*
X127056723Y-87738094D01*
X127056723Y-87738094D02*
X126866247Y-87785713D01*
X126866247Y-87785713D02*
X126723390Y-87785713D01*
X126723390Y-87785713D02*
X126532914Y-87738094D01*
X126532914Y-87738094D02*
X126437676Y-87690475D01*
X126437676Y-87690475D02*
X126342438Y-87595237D01*
X126342438Y-87595237D02*
X126294819Y-87452380D01*
X126294819Y-87452380D02*
X126294819Y-87357142D01*
X126294819Y-87357142D02*
X126342438Y-87214285D01*
X126342438Y-87214285D02*
X126390057Y-87166666D01*
X126628152Y-86309523D02*
X127294819Y-86309523D01*
X126247200Y-86547618D02*
X126961485Y-86785713D01*
X126961485Y-86785713D02*
X126961485Y-86166666D01*
X136323333Y-86284819D02*
X135990000Y-85808628D01*
X135751905Y-86284819D02*
X135751905Y-85284819D01*
X135751905Y-85284819D02*
X136132857Y-85284819D01*
X136132857Y-85284819D02*
X136228095Y-85332438D01*
X136228095Y-85332438D02*
X136275714Y-85380057D01*
X136275714Y-85380057D02*
X136323333Y-85475295D01*
X136323333Y-85475295D02*
X136323333Y-85618152D01*
X136323333Y-85618152D02*
X136275714Y-85713390D01*
X136275714Y-85713390D02*
X136228095Y-85761009D01*
X136228095Y-85761009D02*
X136132857Y-85808628D01*
X136132857Y-85808628D02*
X135751905Y-85808628D01*
X137228095Y-85284819D02*
X136751905Y-85284819D01*
X136751905Y-85284819D02*
X136704286Y-85761009D01*
X136704286Y-85761009D02*
X136751905Y-85713390D01*
X136751905Y-85713390D02*
X136847143Y-85665771D01*
X136847143Y-85665771D02*
X137085238Y-85665771D01*
X137085238Y-85665771D02*
X137180476Y-85713390D01*
X137180476Y-85713390D02*
X137228095Y-85761009D01*
X137228095Y-85761009D02*
X137275714Y-85856247D01*
X137275714Y-85856247D02*
X137275714Y-86094342D01*
X137275714Y-86094342D02*
X137228095Y-86189580D01*
X137228095Y-86189580D02*
X137180476Y-86237200D01*
X137180476Y-86237200D02*
X137085238Y-86284819D01*
X137085238Y-86284819D02*
X136847143Y-86284819D01*
X136847143Y-86284819D02*
X136751905Y-86237200D01*
X136751905Y-86237200D02*
X136704286Y-86189580D01*
X139348333Y-77624819D02*
X138872143Y-77624819D01*
X138872143Y-77624819D02*
X138872143Y-76624819D01*
X140110238Y-76958152D02*
X140110238Y-77624819D01*
X139872143Y-76577200D02*
X139634048Y-77291485D01*
X139634048Y-77291485D02*
X140253095Y-77291485D01*
X123337142Y-66199580D02*
X123289523Y-66247200D01*
X123289523Y-66247200D02*
X123146666Y-66294819D01*
X123146666Y-66294819D02*
X123051428Y-66294819D01*
X123051428Y-66294819D02*
X122908571Y-66247200D01*
X122908571Y-66247200D02*
X122813333Y-66151961D01*
X122813333Y-66151961D02*
X122765714Y-66056723D01*
X122765714Y-66056723D02*
X122718095Y-65866247D01*
X122718095Y-65866247D02*
X122718095Y-65723390D01*
X122718095Y-65723390D02*
X122765714Y-65532914D01*
X122765714Y-65532914D02*
X122813333Y-65437676D01*
X122813333Y-65437676D02*
X122908571Y-65342438D01*
X122908571Y-65342438D02*
X123051428Y-65294819D01*
X123051428Y-65294819D02*
X123146666Y-65294819D01*
X123146666Y-65294819D02*
X123289523Y-65342438D01*
X123289523Y-65342438D02*
X123337142Y-65390057D01*
X124289523Y-66294819D02*
X123718095Y-66294819D01*
X124003809Y-66294819D02*
X124003809Y-65294819D01*
X124003809Y-65294819D02*
X123908571Y-65437676D01*
X123908571Y-65437676D02*
X123813333Y-65532914D01*
X123813333Y-65532914D02*
X123718095Y-65580533D01*
X124908571Y-65294819D02*
X125003809Y-65294819D01*
X125003809Y-65294819D02*
X125099047Y-65342438D01*
X125099047Y-65342438D02*
X125146666Y-65390057D01*
X125146666Y-65390057D02*
X125194285Y-65485295D01*
X125194285Y-65485295D02*
X125241904Y-65675771D01*
X125241904Y-65675771D02*
X125241904Y-65913866D01*
X125241904Y-65913866D02*
X125194285Y-66104342D01*
X125194285Y-66104342D02*
X125146666Y-66199580D01*
X125146666Y-66199580D02*
X125099047Y-66247200D01*
X125099047Y-66247200D02*
X125003809Y-66294819D01*
X125003809Y-66294819D02*
X124908571Y-66294819D01*
X124908571Y-66294819D02*
X124813333Y-66247200D01*
X124813333Y-66247200D02*
X124765714Y-66199580D01*
X124765714Y-66199580D02*
X124718095Y-66104342D01*
X124718095Y-66104342D02*
X124670476Y-65913866D01*
X124670476Y-65913866D02*
X124670476Y-65675771D01*
X124670476Y-65675771D02*
X124718095Y-65485295D01*
X124718095Y-65485295D02*
X124765714Y-65390057D01*
X124765714Y-65390057D02*
X124813333Y-65342438D01*
X124813333Y-65342438D02*
X124908571Y-65294819D01*
X118833333Y-69199580D02*
X118785714Y-69247200D01*
X118785714Y-69247200D02*
X118642857Y-69294819D01*
X118642857Y-69294819D02*
X118547619Y-69294819D01*
X118547619Y-69294819D02*
X118404762Y-69247200D01*
X118404762Y-69247200D02*
X118309524Y-69151961D01*
X118309524Y-69151961D02*
X118261905Y-69056723D01*
X118261905Y-69056723D02*
X118214286Y-68866247D01*
X118214286Y-68866247D02*
X118214286Y-68723390D01*
X118214286Y-68723390D02*
X118261905Y-68532914D01*
X118261905Y-68532914D02*
X118309524Y-68437676D01*
X118309524Y-68437676D02*
X118404762Y-68342438D01*
X118404762Y-68342438D02*
X118547619Y-68294819D01*
X118547619Y-68294819D02*
X118642857Y-68294819D01*
X118642857Y-68294819D02*
X118785714Y-68342438D01*
X118785714Y-68342438D02*
X118833333Y-68390057D01*
X119166667Y-68294819D02*
X119833333Y-68294819D01*
X119833333Y-68294819D02*
X119404762Y-69294819D01*
X117738095Y-78054819D02*
X117738095Y-78864342D01*
X117738095Y-78864342D02*
X117785714Y-78959580D01*
X117785714Y-78959580D02*
X117833333Y-79007200D01*
X117833333Y-79007200D02*
X117928571Y-79054819D01*
X117928571Y-79054819D02*
X118119047Y-79054819D01*
X118119047Y-79054819D02*
X118214285Y-79007200D01*
X118214285Y-79007200D02*
X118261904Y-78959580D01*
X118261904Y-78959580D02*
X118309523Y-78864342D01*
X118309523Y-78864342D02*
X118309523Y-78054819D01*
X119261904Y-78054819D02*
X118785714Y-78054819D01*
X118785714Y-78054819D02*
X118738095Y-78531009D01*
X118738095Y-78531009D02*
X118785714Y-78483390D01*
X118785714Y-78483390D02*
X118880952Y-78435771D01*
X118880952Y-78435771D02*
X119119047Y-78435771D01*
X119119047Y-78435771D02*
X119214285Y-78483390D01*
X119214285Y-78483390D02*
X119261904Y-78531009D01*
X119261904Y-78531009D02*
X119309523Y-78626247D01*
X119309523Y-78626247D02*
X119309523Y-78864342D01*
X119309523Y-78864342D02*
X119261904Y-78959580D01*
X119261904Y-78959580D02*
X119214285Y-79007200D01*
X119214285Y-79007200D02*
X119119047Y-79054819D01*
X119119047Y-79054819D02*
X118880952Y-79054819D01*
X118880952Y-79054819D02*
X118785714Y-79007200D01*
X118785714Y-79007200D02*
X118738095Y-78959580D01*
X124877142Y-76199580D02*
X124829523Y-76247200D01*
X124829523Y-76247200D02*
X124686666Y-76294819D01*
X124686666Y-76294819D02*
X124591428Y-76294819D01*
X124591428Y-76294819D02*
X124448571Y-76247200D01*
X124448571Y-76247200D02*
X124353333Y-76151961D01*
X124353333Y-76151961D02*
X124305714Y-76056723D01*
X124305714Y-76056723D02*
X124258095Y-75866247D01*
X124258095Y-75866247D02*
X124258095Y-75723390D01*
X124258095Y-75723390D02*
X124305714Y-75532914D01*
X124305714Y-75532914D02*
X124353333Y-75437676D01*
X124353333Y-75437676D02*
X124448571Y-75342438D01*
X124448571Y-75342438D02*
X124591428Y-75294819D01*
X124591428Y-75294819D02*
X124686666Y-75294819D01*
X124686666Y-75294819D02*
X124829523Y-75342438D01*
X124829523Y-75342438D02*
X124877142Y-75390057D01*
X125829523Y-76294819D02*
X125258095Y-76294819D01*
X125543809Y-76294819D02*
X125543809Y-75294819D01*
X125543809Y-75294819D02*
X125448571Y-75437676D01*
X125448571Y-75437676D02*
X125353333Y-75532914D01*
X125353333Y-75532914D02*
X125258095Y-75580533D01*
X126686666Y-75294819D02*
X126496190Y-75294819D01*
X126496190Y-75294819D02*
X126400952Y-75342438D01*
X126400952Y-75342438D02*
X126353333Y-75390057D01*
X126353333Y-75390057D02*
X126258095Y-75532914D01*
X126258095Y-75532914D02*
X126210476Y-75723390D01*
X126210476Y-75723390D02*
X126210476Y-76104342D01*
X126210476Y-76104342D02*
X126258095Y-76199580D01*
X126258095Y-76199580D02*
X126305714Y-76247200D01*
X126305714Y-76247200D02*
X126400952Y-76294819D01*
X126400952Y-76294819D02*
X126591428Y-76294819D01*
X126591428Y-76294819D02*
X126686666Y-76247200D01*
X126686666Y-76247200D02*
X126734285Y-76199580D01*
X126734285Y-76199580D02*
X126781904Y-76104342D01*
X126781904Y-76104342D02*
X126781904Y-75866247D01*
X126781904Y-75866247D02*
X126734285Y-75771009D01*
X126734285Y-75771009D02*
X126686666Y-75723390D01*
X126686666Y-75723390D02*
X126591428Y-75675771D01*
X126591428Y-75675771D02*
X126400952Y-75675771D01*
X126400952Y-75675771D02*
X126305714Y-75723390D01*
X126305714Y-75723390D02*
X126258095Y-75771009D01*
X126258095Y-75771009D02*
X126210476Y-75866247D01*
X142528628Y-72976190D02*
X143004819Y-72976190D01*
X142004819Y-73309523D02*
X142528628Y-72976190D01*
X142528628Y-72976190D02*
X142004819Y-72642857D01*
X142100057Y-72357142D02*
X142052438Y-72309523D01*
X142052438Y-72309523D02*
X142004819Y-72214285D01*
X142004819Y-72214285D02*
X142004819Y-71976190D01*
X142004819Y-71976190D02*
X142052438Y-71880952D01*
X142052438Y-71880952D02*
X142100057Y-71833333D01*
X142100057Y-71833333D02*
X142195295Y-71785714D01*
X142195295Y-71785714D02*
X142290533Y-71785714D01*
X142290533Y-71785714D02*
X142433390Y-71833333D01*
X142433390Y-71833333D02*
X143004819Y-72404761D01*
X143004819Y-72404761D02*
X143004819Y-71785714D01*
X118853333Y-68199580D02*
X118805714Y-68247200D01*
X118805714Y-68247200D02*
X118662857Y-68294819D01*
X118662857Y-68294819D02*
X118567619Y-68294819D01*
X118567619Y-68294819D02*
X118424762Y-68247200D01*
X118424762Y-68247200D02*
X118329524Y-68151961D01*
X118329524Y-68151961D02*
X118281905Y-68056723D01*
X118281905Y-68056723D02*
X118234286Y-67866247D01*
X118234286Y-67866247D02*
X118234286Y-67723390D01*
X118234286Y-67723390D02*
X118281905Y-67532914D01*
X118281905Y-67532914D02*
X118329524Y-67437676D01*
X118329524Y-67437676D02*
X118424762Y-67342438D01*
X118424762Y-67342438D02*
X118567619Y-67294819D01*
X118567619Y-67294819D02*
X118662857Y-67294819D01*
X118662857Y-67294819D02*
X118805714Y-67342438D01*
X118805714Y-67342438D02*
X118853333Y-67390057D01*
X119424762Y-67723390D02*
X119329524Y-67675771D01*
X119329524Y-67675771D02*
X119281905Y-67628152D01*
X119281905Y-67628152D02*
X119234286Y-67532914D01*
X119234286Y-67532914D02*
X119234286Y-67485295D01*
X119234286Y-67485295D02*
X119281905Y-67390057D01*
X119281905Y-67390057D02*
X119329524Y-67342438D01*
X119329524Y-67342438D02*
X119424762Y-67294819D01*
X119424762Y-67294819D02*
X119615238Y-67294819D01*
X119615238Y-67294819D02*
X119710476Y-67342438D01*
X119710476Y-67342438D02*
X119758095Y-67390057D01*
X119758095Y-67390057D02*
X119805714Y-67485295D01*
X119805714Y-67485295D02*
X119805714Y-67532914D01*
X119805714Y-67532914D02*
X119758095Y-67628152D01*
X119758095Y-67628152D02*
X119710476Y-67675771D01*
X119710476Y-67675771D02*
X119615238Y-67723390D01*
X119615238Y-67723390D02*
X119424762Y-67723390D01*
X119424762Y-67723390D02*
X119329524Y-67771009D01*
X119329524Y-67771009D02*
X119281905Y-67818628D01*
X119281905Y-67818628D02*
X119234286Y-67913866D01*
X119234286Y-67913866D02*
X119234286Y-68104342D01*
X119234286Y-68104342D02*
X119281905Y-68199580D01*
X119281905Y-68199580D02*
X119329524Y-68247200D01*
X119329524Y-68247200D02*
X119424762Y-68294819D01*
X119424762Y-68294819D02*
X119615238Y-68294819D01*
X119615238Y-68294819D02*
X119710476Y-68247200D01*
X119710476Y-68247200D02*
X119758095Y-68199580D01*
X119758095Y-68199580D02*
X119805714Y-68104342D01*
X119805714Y-68104342D02*
X119805714Y-67913866D01*
X119805714Y-67913866D02*
X119758095Y-67818628D01*
X119758095Y-67818628D02*
X119710476Y-67771009D01*
X119710476Y-67771009D02*
X119615238Y-67723390D01*
X138774819Y-82666666D02*
X138298628Y-82999999D01*
X138774819Y-83238094D02*
X137774819Y-83238094D01*
X137774819Y-83238094D02*
X137774819Y-82857142D01*
X137774819Y-82857142D02*
X137822438Y-82761904D01*
X137822438Y-82761904D02*
X137870057Y-82714285D01*
X137870057Y-82714285D02*
X137965295Y-82666666D01*
X137965295Y-82666666D02*
X138108152Y-82666666D01*
X138108152Y-82666666D02*
X138203390Y-82714285D01*
X138203390Y-82714285D02*
X138251009Y-82761904D01*
X138251009Y-82761904D02*
X138298628Y-82857142D01*
X138298628Y-82857142D02*
X138298628Y-83238094D01*
X137774819Y-82333332D02*
X137774819Y-81714285D01*
X137774819Y-81714285D02*
X138155771Y-82047618D01*
X138155771Y-82047618D02*
X138155771Y-81904761D01*
X138155771Y-81904761D02*
X138203390Y-81809523D01*
X138203390Y-81809523D02*
X138251009Y-81761904D01*
X138251009Y-81761904D02*
X138346247Y-81714285D01*
X138346247Y-81714285D02*
X138584342Y-81714285D01*
X138584342Y-81714285D02*
X138679580Y-81761904D01*
X138679580Y-81761904D02*
X138727200Y-81809523D01*
X138727200Y-81809523D02*
X138774819Y-81904761D01*
X138774819Y-81904761D02*
X138774819Y-82190475D01*
X138774819Y-82190475D02*
X138727200Y-82285713D01*
X138727200Y-82285713D02*
X138679580Y-82333332D01*
X127823333Y-83784819D02*
X127490000Y-83308628D01*
X127251905Y-83784819D02*
X127251905Y-82784819D01*
X127251905Y-82784819D02*
X127632857Y-82784819D01*
X127632857Y-82784819D02*
X127728095Y-82832438D01*
X127728095Y-82832438D02*
X127775714Y-82880057D01*
X127775714Y-82880057D02*
X127823333Y-82975295D01*
X127823333Y-82975295D02*
X127823333Y-83118152D01*
X127823333Y-83118152D02*
X127775714Y-83213390D01*
X127775714Y-83213390D02*
X127728095Y-83261009D01*
X127728095Y-83261009D02*
X127632857Y-83308628D01*
X127632857Y-83308628D02*
X127251905Y-83308628D01*
X128775714Y-83784819D02*
X128204286Y-83784819D01*
X128490000Y-83784819D02*
X128490000Y-82784819D01*
X128490000Y-82784819D02*
X128394762Y-82927676D01*
X128394762Y-82927676D02*
X128299524Y-83022914D01*
X128299524Y-83022914D02*
X128204286Y-83070533D01*
X119699580Y-77142857D02*
X119747200Y-77190476D01*
X119747200Y-77190476D02*
X119794819Y-77333333D01*
X119794819Y-77333333D02*
X119794819Y-77428571D01*
X119794819Y-77428571D02*
X119747200Y-77571428D01*
X119747200Y-77571428D02*
X119651961Y-77666666D01*
X119651961Y-77666666D02*
X119556723Y-77714285D01*
X119556723Y-77714285D02*
X119366247Y-77761904D01*
X119366247Y-77761904D02*
X119223390Y-77761904D01*
X119223390Y-77761904D02*
X119032914Y-77714285D01*
X119032914Y-77714285D02*
X118937676Y-77666666D01*
X118937676Y-77666666D02*
X118842438Y-77571428D01*
X118842438Y-77571428D02*
X118794819Y-77428571D01*
X118794819Y-77428571D02*
X118794819Y-77333333D01*
X118794819Y-77333333D02*
X118842438Y-77190476D01*
X118842438Y-77190476D02*
X118890057Y-77142857D01*
X118890057Y-76761904D02*
X118842438Y-76714285D01*
X118842438Y-76714285D02*
X118794819Y-76619047D01*
X118794819Y-76619047D02*
X118794819Y-76380952D01*
X118794819Y-76380952D02*
X118842438Y-76285714D01*
X118842438Y-76285714D02*
X118890057Y-76238095D01*
X118890057Y-76238095D02*
X118985295Y-76190476D01*
X118985295Y-76190476D02*
X119080533Y-76190476D01*
X119080533Y-76190476D02*
X119223390Y-76238095D01*
X119223390Y-76238095D02*
X119794819Y-76809523D01*
X119794819Y-76809523D02*
X119794819Y-76190476D01*
X118794819Y-75285714D02*
X118794819Y-75761904D01*
X118794819Y-75761904D02*
X119271009Y-75809523D01*
X119271009Y-75809523D02*
X119223390Y-75761904D01*
X119223390Y-75761904D02*
X119175771Y-75666666D01*
X119175771Y-75666666D02*
X119175771Y-75428571D01*
X119175771Y-75428571D02*
X119223390Y-75333333D01*
X119223390Y-75333333D02*
X119271009Y-75285714D01*
X119271009Y-75285714D02*
X119366247Y-75238095D01*
X119366247Y-75238095D02*
X119604342Y-75238095D01*
X119604342Y-75238095D02*
X119699580Y-75285714D01*
X119699580Y-75285714D02*
X119747200Y-75333333D01*
X119747200Y-75333333D02*
X119794819Y-75428571D01*
X119794819Y-75428571D02*
X119794819Y-75666666D01*
X119794819Y-75666666D02*
X119747200Y-75761904D01*
X119747200Y-75761904D02*
X119699580Y-75809523D01*
X130333333Y-87019580D02*
X130285714Y-87067200D01*
X130285714Y-87067200D02*
X130142857Y-87114819D01*
X130142857Y-87114819D02*
X130047619Y-87114819D01*
X130047619Y-87114819D02*
X129904762Y-87067200D01*
X129904762Y-87067200D02*
X129809524Y-86971961D01*
X129809524Y-86971961D02*
X129761905Y-86876723D01*
X129761905Y-86876723D02*
X129714286Y-86686247D01*
X129714286Y-86686247D02*
X129714286Y-86543390D01*
X129714286Y-86543390D02*
X129761905Y-86352914D01*
X129761905Y-86352914D02*
X129809524Y-86257676D01*
X129809524Y-86257676D02*
X129904762Y-86162438D01*
X129904762Y-86162438D02*
X130047619Y-86114819D01*
X130047619Y-86114819D02*
X130142857Y-86114819D01*
X130142857Y-86114819D02*
X130285714Y-86162438D01*
X130285714Y-86162438D02*
X130333333Y-86210057D01*
X130666667Y-86114819D02*
X131285714Y-86114819D01*
X131285714Y-86114819D02*
X130952381Y-86495771D01*
X130952381Y-86495771D02*
X131095238Y-86495771D01*
X131095238Y-86495771D02*
X131190476Y-86543390D01*
X131190476Y-86543390D02*
X131238095Y-86591009D01*
X131238095Y-86591009D02*
X131285714Y-86686247D01*
X131285714Y-86686247D02*
X131285714Y-86924342D01*
X131285714Y-86924342D02*
X131238095Y-87019580D01*
X131238095Y-87019580D02*
X131190476Y-87067200D01*
X131190476Y-87067200D02*
X131095238Y-87114819D01*
X131095238Y-87114819D02*
X130809524Y-87114819D01*
X130809524Y-87114819D02*
X130714286Y-87067200D01*
X130714286Y-87067200D02*
X130666667Y-87019580D01*
X123333333Y-70784819D02*
X123000000Y-70308628D01*
X122761905Y-70784819D02*
X122761905Y-69784819D01*
X122761905Y-69784819D02*
X123142857Y-69784819D01*
X123142857Y-69784819D02*
X123238095Y-69832438D01*
X123238095Y-69832438D02*
X123285714Y-69880057D01*
X123285714Y-69880057D02*
X123333333Y-69975295D01*
X123333333Y-69975295D02*
X123333333Y-70118152D01*
X123333333Y-70118152D02*
X123285714Y-70213390D01*
X123285714Y-70213390D02*
X123238095Y-70261009D01*
X123238095Y-70261009D02*
X123142857Y-70308628D01*
X123142857Y-70308628D02*
X122761905Y-70308628D01*
X123714286Y-69880057D02*
X123761905Y-69832438D01*
X123761905Y-69832438D02*
X123857143Y-69784819D01*
X123857143Y-69784819D02*
X124095238Y-69784819D01*
X124095238Y-69784819D02*
X124190476Y-69832438D01*
X124190476Y-69832438D02*
X124238095Y-69880057D01*
X124238095Y-69880057D02*
X124285714Y-69975295D01*
X124285714Y-69975295D02*
X124285714Y-70070533D01*
X124285714Y-70070533D02*
X124238095Y-70213390D01*
X124238095Y-70213390D02*
X123666667Y-70784819D01*
X123666667Y-70784819D02*
X124285714Y-70784819D01*
X142377142Y-86199580D02*
X142329523Y-86247200D01*
X142329523Y-86247200D02*
X142186666Y-86294819D01*
X142186666Y-86294819D02*
X142091428Y-86294819D01*
X142091428Y-86294819D02*
X141948571Y-86247200D01*
X141948571Y-86247200D02*
X141853333Y-86151961D01*
X141853333Y-86151961D02*
X141805714Y-86056723D01*
X141805714Y-86056723D02*
X141758095Y-85866247D01*
X141758095Y-85866247D02*
X141758095Y-85723390D01*
X141758095Y-85723390D02*
X141805714Y-85532914D01*
X141805714Y-85532914D02*
X141853333Y-85437676D01*
X141853333Y-85437676D02*
X141948571Y-85342438D01*
X141948571Y-85342438D02*
X142091428Y-85294819D01*
X142091428Y-85294819D02*
X142186666Y-85294819D01*
X142186666Y-85294819D02*
X142329523Y-85342438D01*
X142329523Y-85342438D02*
X142377142Y-85390057D01*
X143329523Y-86294819D02*
X142758095Y-86294819D01*
X143043809Y-86294819D02*
X143043809Y-85294819D01*
X143043809Y-85294819D02*
X142948571Y-85437676D01*
X142948571Y-85437676D02*
X142853333Y-85532914D01*
X142853333Y-85532914D02*
X142758095Y-85580533D01*
X143900952Y-85723390D02*
X143805714Y-85675771D01*
X143805714Y-85675771D02*
X143758095Y-85628152D01*
X143758095Y-85628152D02*
X143710476Y-85532914D01*
X143710476Y-85532914D02*
X143710476Y-85485295D01*
X143710476Y-85485295D02*
X143758095Y-85390057D01*
X143758095Y-85390057D02*
X143805714Y-85342438D01*
X143805714Y-85342438D02*
X143900952Y-85294819D01*
X143900952Y-85294819D02*
X144091428Y-85294819D01*
X144091428Y-85294819D02*
X144186666Y-85342438D01*
X144186666Y-85342438D02*
X144234285Y-85390057D01*
X144234285Y-85390057D02*
X144281904Y-85485295D01*
X144281904Y-85485295D02*
X144281904Y-85532914D01*
X144281904Y-85532914D02*
X144234285Y-85628152D01*
X144234285Y-85628152D02*
X144186666Y-85675771D01*
X144186666Y-85675771D02*
X144091428Y-85723390D01*
X144091428Y-85723390D02*
X143900952Y-85723390D01*
X143900952Y-85723390D02*
X143805714Y-85771009D01*
X143805714Y-85771009D02*
X143758095Y-85818628D01*
X143758095Y-85818628D02*
X143710476Y-85913866D01*
X143710476Y-85913866D02*
X143710476Y-86104342D01*
X143710476Y-86104342D02*
X143758095Y-86199580D01*
X143758095Y-86199580D02*
X143805714Y-86247200D01*
X143805714Y-86247200D02*
X143900952Y-86294819D01*
X143900952Y-86294819D02*
X144091428Y-86294819D01*
X144091428Y-86294819D02*
X144186666Y-86247200D01*
X144186666Y-86247200D02*
X144234285Y-86199580D01*
X144234285Y-86199580D02*
X144281904Y-86104342D01*
X144281904Y-86104342D02*
X144281904Y-85913866D01*
X144281904Y-85913866D02*
X144234285Y-85818628D01*
X144234285Y-85818628D02*
X144186666Y-85771009D01*
X144186666Y-85771009D02*
X144091428Y-85723390D01*
X118813333Y-69019580D02*
X118765714Y-69067200D01*
X118765714Y-69067200D02*
X118622857Y-69114819D01*
X118622857Y-69114819D02*
X118527619Y-69114819D01*
X118527619Y-69114819D02*
X118384762Y-69067200D01*
X118384762Y-69067200D02*
X118289524Y-68971961D01*
X118289524Y-68971961D02*
X118241905Y-68876723D01*
X118241905Y-68876723D02*
X118194286Y-68686247D01*
X118194286Y-68686247D02*
X118194286Y-68543390D01*
X118194286Y-68543390D02*
X118241905Y-68352914D01*
X118241905Y-68352914D02*
X118289524Y-68257676D01*
X118289524Y-68257676D02*
X118384762Y-68162438D01*
X118384762Y-68162438D02*
X118527619Y-68114819D01*
X118527619Y-68114819D02*
X118622857Y-68114819D01*
X118622857Y-68114819D02*
X118765714Y-68162438D01*
X118765714Y-68162438D02*
X118813333Y-68210057D01*
X119765714Y-69114819D02*
X119194286Y-69114819D01*
X119480000Y-69114819D02*
X119480000Y-68114819D01*
X119480000Y-68114819D02*
X119384762Y-68257676D01*
X119384762Y-68257676D02*
X119289524Y-68352914D01*
X119289524Y-68352914D02*
X119194286Y-68400533D01*
X114261009Y-83833333D02*
X114261009Y-84166666D01*
X114784819Y-84166666D02*
X113784819Y-84166666D01*
X113784819Y-84166666D02*
X113784819Y-83690476D01*
X114261009Y-82976190D02*
X114308628Y-82833333D01*
X114308628Y-82833333D02*
X114356247Y-82785714D01*
X114356247Y-82785714D02*
X114451485Y-82738095D01*
X114451485Y-82738095D02*
X114594342Y-82738095D01*
X114594342Y-82738095D02*
X114689580Y-82785714D01*
X114689580Y-82785714D02*
X114737200Y-82833333D01*
X114737200Y-82833333D02*
X114784819Y-82928571D01*
X114784819Y-82928571D02*
X114784819Y-83309523D01*
X114784819Y-83309523D02*
X113784819Y-83309523D01*
X113784819Y-83309523D02*
X113784819Y-82976190D01*
X113784819Y-82976190D02*
X113832438Y-82880952D01*
X113832438Y-82880952D02*
X113880057Y-82833333D01*
X113880057Y-82833333D02*
X113975295Y-82785714D01*
X113975295Y-82785714D02*
X114070533Y-82785714D01*
X114070533Y-82785714D02*
X114165771Y-82833333D01*
X114165771Y-82833333D02*
X114213390Y-82880952D01*
X114213390Y-82880952D02*
X114261009Y-82976190D01*
X114261009Y-82976190D02*
X114261009Y-83309523D01*
X114784819Y-81785714D02*
X114784819Y-82357142D01*
X114784819Y-82071428D02*
X113784819Y-82071428D01*
X113784819Y-82071428D02*
X113927676Y-82166666D01*
X113927676Y-82166666D02*
X114022914Y-82261904D01*
X114022914Y-82261904D02*
X114070533Y-82357142D01*
X140023809Y-69528628D02*
X140023809Y-70004819D01*
X139690476Y-69004819D02*
X140023809Y-69528628D01*
X140023809Y-69528628D02*
X140357142Y-69004819D01*
X141214285Y-70004819D02*
X140642857Y-70004819D01*
X140928571Y-70004819D02*
X140928571Y-69004819D01*
X140928571Y-69004819D02*
X140833333Y-69147676D01*
X140833333Y-69147676D02*
X140738095Y-69242914D01*
X140738095Y-69242914D02*
X140642857Y-69290533D01*
X118377142Y-71199580D02*
X118329523Y-71247200D01*
X118329523Y-71247200D02*
X118186666Y-71294819D01*
X118186666Y-71294819D02*
X118091428Y-71294819D01*
X118091428Y-71294819D02*
X117948571Y-71247200D01*
X117948571Y-71247200D02*
X117853333Y-71151961D01*
X117853333Y-71151961D02*
X117805714Y-71056723D01*
X117805714Y-71056723D02*
X117758095Y-70866247D01*
X117758095Y-70866247D02*
X117758095Y-70723390D01*
X117758095Y-70723390D02*
X117805714Y-70532914D01*
X117805714Y-70532914D02*
X117853333Y-70437676D01*
X117853333Y-70437676D02*
X117948571Y-70342438D01*
X117948571Y-70342438D02*
X118091428Y-70294819D01*
X118091428Y-70294819D02*
X118186666Y-70294819D01*
X118186666Y-70294819D02*
X118329523Y-70342438D01*
X118329523Y-70342438D02*
X118377142Y-70390057D01*
X119329523Y-71294819D02*
X118758095Y-71294819D01*
X119043809Y-71294819D02*
X119043809Y-70294819D01*
X119043809Y-70294819D02*
X118948571Y-70437676D01*
X118948571Y-70437676D02*
X118853333Y-70532914D01*
X118853333Y-70532914D02*
X118758095Y-70580533D01*
X120281904Y-71294819D02*
X119710476Y-71294819D01*
X119996190Y-71294819D02*
X119996190Y-70294819D01*
X119996190Y-70294819D02*
X119900952Y-70437676D01*
X119900952Y-70437676D02*
X119805714Y-70532914D01*
X119805714Y-70532914D02*
X119710476Y-70580533D01*
X142238095Y-79114819D02*
X142238095Y-79924342D01*
X142238095Y-79924342D02*
X142285714Y-80019580D01*
X142285714Y-80019580D02*
X142333333Y-80067200D01*
X142333333Y-80067200D02*
X142428571Y-80114819D01*
X142428571Y-80114819D02*
X142619047Y-80114819D01*
X142619047Y-80114819D02*
X142714285Y-80067200D01*
X142714285Y-80067200D02*
X142761904Y-80019580D01*
X142761904Y-80019580D02*
X142809523Y-79924342D01*
X142809523Y-79924342D02*
X142809523Y-79114819D01*
X143238095Y-79210057D02*
X143285714Y-79162438D01*
X143285714Y-79162438D02*
X143380952Y-79114819D01*
X143380952Y-79114819D02*
X143619047Y-79114819D01*
X143619047Y-79114819D02*
X143714285Y-79162438D01*
X143714285Y-79162438D02*
X143761904Y-79210057D01*
X143761904Y-79210057D02*
X143809523Y-79305295D01*
X143809523Y-79305295D02*
X143809523Y-79400533D01*
X143809523Y-79400533D02*
X143761904Y-79543390D01*
X143761904Y-79543390D02*
X143190476Y-80114819D01*
X143190476Y-80114819D02*
X143809523Y-80114819D01*
%TO.C,AE1*%
D11*
X145170000Y-84710000D02*
X145170000Y-84830000D01*
X145170000Y-84830000D02*
X147830000Y-84830000D01*
X146500000Y-82170000D02*
X147830000Y-82170000D01*
X147830000Y-82170000D02*
X147830000Y-83500000D01*
X147830000Y-84710000D02*
X147830000Y-84830000D01*
%TO.C,C24*%
X118412164Y-75640000D02*
X118627836Y-75640000D01*
X118412164Y-76360000D02*
X118627836Y-76360000D01*
%TO.C,SW1*%
X137800000Y-88000000D02*
X137800000Y-89200000D01*
X137800000Y-90800000D02*
X137800000Y-92000000D01*
X137800000Y-92000000D02*
X144200000Y-92000000D01*
X144200000Y-88000000D02*
X137800000Y-88000000D01*
X144200000Y-89200000D02*
X144200000Y-88000000D01*
X144200000Y-92000000D02*
X144200000Y-90800000D01*
%TO.C,SW2*%
X128300000Y-88500000D02*
X128300000Y-89700000D01*
X128300000Y-91300000D02*
X128300000Y-92500000D01*
X128300000Y-92500000D02*
X134700000Y-92500000D01*
X134700000Y-88500000D02*
X128300000Y-88500000D01*
X134700000Y-89700000D02*
X134700000Y-88500000D01*
X134700000Y-92500000D02*
X134700000Y-91300000D01*
%TO.C,C2*%
X116140000Y-67607836D02*
X116140000Y-67392164D01*
X116860000Y-67607836D02*
X116860000Y-67392164D01*
%TO.C,C6*%
X118892164Y-73140000D02*
X119107836Y-73140000D01*
X118892164Y-73860000D02*
X119107836Y-73860000D01*
%TO.C,C20*%
X144640000Y-88127836D02*
X144640000Y-87912164D01*
X145360000Y-88127836D02*
X145360000Y-87912164D01*
%TO.C,C17*%
X139412164Y-86140000D02*
X139627836Y-86140000D01*
X139412164Y-86860000D02*
X139627836Y-86860000D01*
%TO.C,C5*%
X115140000Y-67607836D02*
X115140000Y-67392164D01*
X115860000Y-67607836D02*
X115860000Y-67392164D01*
%TO.C,R7*%
X123836359Y-72120000D02*
X124143641Y-72120000D01*
X123836359Y-72880000D02*
X124143641Y-72880000D01*
%TO.C,U1*%
X128827500Y-65605000D02*
X134347500Y-65605000D01*
X128827500Y-65875000D02*
X128827500Y-65605000D01*
X128827500Y-71125000D02*
X128827500Y-70855000D01*
X134347500Y-65605000D02*
X134347500Y-65875000D01*
X134347500Y-70855000D02*
X134347500Y-71125000D01*
X134347500Y-71125000D02*
X128827500Y-71125000D01*
X127997500Y-65865000D02*
X127657500Y-65395000D01*
X128337500Y-65395000D01*
X127997500Y-65865000D01*
G36*
X127997500Y-65865000D02*
G01*
X127657500Y-65395000D01*
X128337500Y-65395000D01*
X127997500Y-65865000D01*
G37*
%TO.C,C15*%
X116140000Y-74607836D02*
X116140000Y-74392164D01*
X116860000Y-74607836D02*
X116860000Y-74392164D01*
%TO.C,C22*%
X121140000Y-73107836D02*
X121140000Y-72892164D01*
X121860000Y-73107836D02*
X121860000Y-72892164D01*
%TO.C,C14*%
X131087836Y-86640000D02*
X130872164Y-86640000D01*
X131087836Y-87360000D02*
X130872164Y-87360000D01*
%TO.C,C23*%
X136140000Y-73087836D02*
X136140000Y-72872164D01*
X136860000Y-73087836D02*
X136860000Y-72872164D01*
%TO.C,R6*%
X125336359Y-83620000D02*
X125643641Y-83620000D01*
X125336359Y-84380000D02*
X125643641Y-84380000D01*
%TO.C,C9*%
X123872164Y-68640000D02*
X124087836Y-68640000D01*
X123872164Y-69360000D02*
X124087836Y-69360000D01*
%TO.C,J1*%
X114330000Y-89900000D02*
X114330000Y-88200000D01*
X123670000Y-89900000D02*
X123670000Y-88200000D01*
%TO.C,R4*%
X124826359Y-73120000D02*
X125133641Y-73120000D01*
X124826359Y-73880000D02*
X125133641Y-73880000D01*
%TO.C,L2*%
D10*
X146360000Y-80820000D02*
X147620000Y-80820000D01*
X146370000Y-78320000D02*
X146370000Y-78540000D01*
X146370000Y-80620000D02*
X146360000Y-80820000D01*
X147610000Y-78550000D02*
X147620000Y-78320000D01*
X147620000Y-78320000D02*
X146370000Y-78320000D01*
X147620000Y-80820000D02*
X147620000Y-80590000D01*
D12*
X146210000Y-78350000D02*
G75*
G02*
X146150000Y-78350000I-30000J0D01*
G01*
X146150000Y-78350000D02*
G75*
G02*
X146210000Y-78350000I30000J0D01*
G01*
D13*
G36*
X147200000Y-79470000D02*
G01*
X146800000Y-79470000D01*
X146800000Y-78970001D01*
X147200000Y-78970001D01*
X147200000Y-79470000D01*
G37*
%TO.C,C21*%
D11*
X123392164Y-83140000D02*
X123607836Y-83140000D01*
X123392164Y-83860000D02*
X123607836Y-83860000D01*
%TO.C,C19*%
X146640000Y-89587836D02*
X146640000Y-89372164D01*
X147360000Y-89587836D02*
X147360000Y-89372164D01*
%TO.C,C12*%
X118932164Y-74170000D02*
X119147836Y-74170000D01*
X118932164Y-74890000D02*
X119147836Y-74890000D01*
%TO.C,C13*%
X116640000Y-69587836D02*
X116640000Y-69372164D01*
X117360000Y-69587836D02*
X117360000Y-69372164D01*
%TO.C,U3*%
X128327500Y-75290000D02*
X128977500Y-75290000D01*
X128327500Y-75940000D02*
X128327500Y-75290000D01*
X128327500Y-82510000D02*
X128327500Y-81860000D01*
X128977500Y-82510000D02*
X128327500Y-82510000D01*
X134897500Y-75290000D02*
X135547500Y-75290000D01*
X135547500Y-75290000D02*
X135547500Y-75940000D01*
X135547500Y-81860000D02*
X135547500Y-82510000D01*
X135547500Y-82510000D02*
X134897500Y-82510000D01*
X127797500Y-76300000D02*
X127467500Y-76540000D01*
X127467500Y-76060000D01*
X127797500Y-76300000D01*
G36*
X127797500Y-76300000D02*
G01*
X127467500Y-76540000D01*
X127467500Y-76060000D01*
X127797500Y-76300000D01*
G37*
%TO.C,U4*%
X140540000Y-77240000D02*
X141015000Y-77240000D01*
X140540000Y-77715000D02*
X140540000Y-77240000D01*
X140540000Y-81460000D02*
X140540000Y-80985000D01*
X141015000Y-81460000D02*
X140540000Y-81460000D01*
X144285000Y-77240000D02*
X144760000Y-77240000D01*
X144760000Y-77240000D02*
X144760000Y-77715000D01*
X144760000Y-80985000D02*
X144760000Y-81460000D01*
X144760000Y-81460000D02*
X144285000Y-81460000D01*
X143900000Y-76740000D02*
X143660000Y-76410000D01*
X144140000Y-76410000D01*
X143900000Y-76740000D01*
G36*
X143900000Y-76740000D02*
G01*
X143660000Y-76410000D01*
X144140000Y-76410000D01*
X143900000Y-76740000D01*
G37*
%TO.C,C4*%
X127640000Y-87107836D02*
X127640000Y-86892164D01*
X128360000Y-87107836D02*
X128360000Y-86892164D01*
%TO.C,R5*%
X136336359Y-86620000D02*
X136643641Y-86620000D01*
X136336359Y-87380000D02*
X136643641Y-87380000D01*
%TO.C,C10*%
X123872164Y-66640000D02*
X124087836Y-66640000D01*
X123872164Y-67360000D02*
X124087836Y-67360000D01*
%TO.C,C7*%
X118892164Y-69640000D02*
X119107836Y-69640000D01*
X118892164Y-70360000D02*
X119107836Y-70360000D01*
%TO.C,U5*%
X117590000Y-79440000D02*
X119410000Y-79440000D01*
X117590000Y-79490000D02*
X117590000Y-79440000D01*
X117590000Y-82560000D02*
X117590000Y-82510000D01*
X119410000Y-79440000D02*
X119410000Y-79490000D01*
X119410000Y-80610000D02*
X119410000Y-81390000D01*
X119410000Y-82510000D02*
X119410000Y-82560000D01*
X119410000Y-82560000D02*
X117590000Y-82560000D01*
X117050000Y-79490000D02*
X116810000Y-79160000D01*
X117290000Y-79160000D01*
X117050000Y-79490000D01*
G36*
X117050000Y-79490000D02*
G01*
X116810000Y-79160000D01*
X117290000Y-79160000D01*
X117050000Y-79490000D01*
G37*
%TO.C,C16*%
X125412164Y-76640000D02*
X125627836Y-76640000D01*
X125412164Y-77360000D02*
X125627836Y-77360000D01*
%TO.C,Y2*%
X143290000Y-74560000D02*
X146710000Y-74560000D01*
X146710000Y-74560000D02*
X146710000Y-70440000D01*
%TO.C,C8*%
X118912164Y-68640000D02*
X119127836Y-68640000D01*
X118912164Y-69360000D02*
X119127836Y-69360000D01*
%TO.C,R3*%
X139110000Y-82653641D02*
X139110000Y-82346359D01*
X139870000Y-82653641D02*
X139870000Y-82346359D01*
%TO.C,R1*%
X127836359Y-84120000D02*
X128143641Y-84120000D01*
X127836359Y-84880000D02*
X128143641Y-84880000D01*
%TO.C,C25*%
X120140000Y-76607836D02*
X120140000Y-76392164D01*
X120860000Y-76607836D02*
X120860000Y-76392164D01*
%TO.C,C3*%
X130607836Y-85140000D02*
X130392164Y-85140000D01*
X130607836Y-85860000D02*
X130392164Y-85860000D01*
%TO.C,R2*%
X123346359Y-71120000D02*
X123653641Y-71120000D01*
X123346359Y-71880000D02*
X123653641Y-71880000D01*
%TO.C,C18*%
X142912164Y-86640000D02*
X143127836Y-86640000D01*
X142912164Y-87360000D02*
X143127836Y-87360000D01*
%TO.C,C1*%
X119087836Y-67140000D02*
X118872164Y-67140000D01*
X119087836Y-67860000D02*
X118872164Y-67860000D01*
%TO.C,Y1*%
X138440000Y-70290000D02*
X138440000Y-73710000D01*
X138440000Y-73710000D02*
X142560000Y-73710000D01*
%TO.C,C11*%
X118912164Y-71640000D02*
X119127836Y-71640000D01*
X118912164Y-72360000D02*
X119127836Y-72360000D01*
%TO.C,U2*%
D10*
X141920000Y-85200000D02*
X141920000Y-83800000D01*
X144080000Y-85200000D02*
X144080000Y-83800000D01*
D14*
X141870000Y-85490000D02*
G75*
G02*
X141570000Y-85490000I-150000J0D01*
G01*
X141570000Y-85490000D02*
G75*
G02*
X141870000Y-85490000I150000J0D01*
G01*
D12*
X142030000Y-85550000D02*
G75*
G02*
X141970000Y-85550000I-30000J0D01*
G01*
X141970000Y-85550000D02*
G75*
G02*
X142030000Y-85550000I30000J0D01*
G01*
%TD*%
M02*
